<svg width="436" height="398" viewBox="0 0 436 398" fill="none" xmlns="http://www.w3.org/2000/svg">
<path d="M21.8 395H403.113C404.302 392.002 405.588 389.05 406.98 386.16C415.193 369.109 426.905 353.925 432.28 335.556C437.851 316.519 435.723 294.58 425.375 278.139C408.056 250.622 372.438 242.693 355.369 214.987C341.825 193.003 342.293 161.972 325.107 143.323C311.669 128.741 290.832 125.95 272.106 128.524C253.38 131.098 235.307 138.156 216.524 140.163C197.025 142.246 177.054 138.725 159.122 130.043C149.095 125.188 139.59 118.713 128.926 115.954C112.024 111.582 93.518 117.471 80.415 130.008C67.312 142.545 59.548 161.186 58.057 180.223C56.75 196.909 59.976 213.583 60.786 230.307C61.596 247.031 59.518 265.092 49.461 277.662C39.673 289.895 24.111 294.742 13.613 306.239C-1.99803 323.336 -2.66503 352.323 7.48697 373.833C11.219 381.74 16.14 388.752 21.8 395Z" fill="#F24535" fill-opacity="0.5"/>
<path d="M70.7499 348.286C70.2779 346.989 69.5589 345.769 68.5629 344.814C67.7539 344.039 66.7789 343.45 65.9889 342.656C63.7469 340.403 63.3529 336.858 63.8979 333.727C64.4429 330.596 65.7749 327.657 66.5229 324.568C67.2709 321.479 67.3619 317.999 65.6019 315.352C64.1649 313.191 61.6789 311.867 60.3569 309.633C58.1909 305.972 59.7899 301.131 58.2449 297.168C57.9869 296.506 57.6319 295.88 57.2019 295.314C56.7169 294.529 56.0979 293.852 55.2579 293.384C54.4329 292.924 53.4859 292.734 52.5419 292.771C51.5979 292.735 50.6499 292.925 49.8259 293.384C48.9859 293.852 48.3669 294.53 47.8819 295.314C47.4509 295.88 47.0969 296.507 46.8379 297.168C45.2929 301.131 46.8919 305.972 44.7259 309.633C43.4039 311.867 40.9179 313.191 39.4809 315.352C37.7209 317.998 37.8119 321.479 38.5599 324.568C39.3079 327.657 40.6399 330.595 41.1849 333.727C41.7299 336.858 41.3359 340.404 39.0939 342.656C38.3039 343.45 37.3289 344.039 36.5199 344.814C35.5239 345.769 34.8039 346.989 34.3319 348.286C33.0159 351.902 33.6639 356.091 35.7099 359.35C38.8719 364.389 44.5099 365.754 49.2179 368.807C49.5169 369.001 49.8339 369.187 50.1569 369.36C50.4179 369.594 50.7049 369.801 51.0529 369.941C51.5359 370.135 52.0369 370.18 52.5399 370.14C53.0429 370.18 53.5439 370.134 54.0269 369.941C54.3749 369.802 54.6619 369.594 54.9229 369.361C55.2469 369.188 55.5629 369.002 55.8619 368.808C60.5709 365.755 66.2079 364.391 69.3699 359.351C71.4179 356.091 72.0659 351.902 70.7499 348.286Z" fill="white"/>
<path d="M64.3599 392.79C63.7199 393.67 62.9899 394.42 62.1599 395H42.9199C35.4199 389.79 36.2499 370.78 36.5999 365.91C36.6399 365.27 37.1799 364.78 37.8199 364.78H67.2599C67.9099 364.78 68.4399 365.27 68.4899 365.91C68.7899 370.24 69.4799 385.74 64.3599 392.79Z" fill="#6376BF"/>
<path opacity="0.5" d="M64.3599 392.79C63.7199 393.67 62.9899 394.42 62.1599 395H42.9199C35.4199 389.79 36.2499 370.78 36.5999 365.91C36.6399 365.27 37.1799 364.78 37.8199 364.78H38.8099C42.7099 372.71 52.9699 391.2 64.3599 392.79Z" fill="#6376BF"/>
<path d="M392.867 204.527C392.908 202.475 391.296 200.759 389.275 200.403C384.344 199.536 371.359 197.253 370.674 197.136C370.092 197.037 371.28 179.504 371.352 178.45C372.27 177.64 372.841 176.494 372.915 175.224C372.924 175.07 372.924 174.908 372.857 174.768C372.79 174.628 372.64 174.517 372.487 174.544C372.349 174.568 372.253 174.69 372.164 174.799C371.848 175.187 371.455 175.511 371.013 175.746C370.66 174.644 371.033 173.46 371.266 172.326C371.325 172.036 371.312 171.636 371.026 171.561C370.777 171.496 370.569 171.752 370.452 171.981C370.166 172.543 369.973 173.152 369.883 173.776C369.958 173.021 370.034 172.266 370.109 171.512C370.132 171.281 370.108 170.977 369.884 170.917C369.707 170.87 369.543 171.024 369.432 171.17C368.84 171.943 368.504 172.907 368.488 173.88C368.49 173.075 368.493 172.269 368.495 171.464C368.495 171.365 368.492 171.257 368.429 171.182C368.342 171.08 368.173 171.086 368.061 171.161C367.949 171.236 367.882 171.36 367.821 171.48C367.414 172.292 367.139 173.17 367.009 174.069C366.941 173.707 366.872 173.344 366.804 172.982C366.763 172.767 366.663 172.498 366.444 172.497C366.238 172.496 366.129 172.737 366.085 172.938C365.865 173.953 366.006 175.02 366.32 176.01C366.543 176.712 366.859 177.377 367.19 178.036C366.108 182.174 361.328 201.202 364.47 202.952C367.997 204.917 387.774 210.255 389.021 210.124C389.904 210.03 392.808 207.514 392.867 204.527Z" fill="#FFC68A"/>
<path d="M365.595 181.443L371.539 183.025C371.539 183.025 370.789 196.574 371.029 196.645C371.269 196.716 391.369 199.273 392.409 201.927C393.449 204.581 393.227 209.078 389.131 210.473C385.035 211.868 363.782 204.776 363.201 201.954C362.158 196.888 365.595 181.443 365.595 181.443Z" fill="#F05956"/>
<path opacity="0.5" d="M371.029 196.645C371.029 196.645 368.266 196.512 368.362 197.29C368.457 198.067 371.029 196.645 371.029 196.645Z" fill="#F05956"/>
<path opacity="0.5" d="M371.029 196.645C371.029 196.645 370.225 197.711 370.515 198.383C370.805 199.055 371.029 196.645 371.029 196.645Z" fill="#F05956"/>
<path d="M393.49 191.73L391.48 200.76L385.05 200.04L385.69 197.11L386.14 195.06L387.17 190.32L393.49 191.73Z" fill="#FFC68A"/>
<path d="M391.2 194.56C391.2 194.56 388.62 197.91 385.69 197.11L386.14 195.06C386.43 195.12 389.56 195.71 391.2 194.56Z" fill="#EDAF6B"/>
<path d="M391.73 230.06L376.94 230.36C376.94 230.36 378 224.94 377.83 220.55C377.79 219.36 377.63 218.13 377.44 216.92C377.23 215.61 376.98 214.34 376.79 213.18C376.79 213.18 376.79 213.18 376.78 213.18C376.56 211.81 376.4 210.62 376.47 209.74C376.87 204.89 385.05 200.04 385.05 200.04L391.48 200.76C391.48 200.76 393.42 203.07 394.07 205.71C394.93 209.2 391.73 230.06 391.73 230.06Z" fill="#F05956"/>
<path d="M391.989 204.889C391.446 202.91 389.414 201.721 387.375 201.954C382.4 202.521 369.301 204.016 368.611 204.099C368.025 204.169 364.19 187.02 363.96 185.989C364.61 184.952 364.833 183.691 364.543 182.452C364.508 182.301 364.462 182.147 364.358 182.031C364.255 181.916 364.079 181.852 363.94 181.921C363.814 181.983 363.757 182.128 363.703 182.257C363.51 182.718 363.225 183.141 362.868 183.491C362.217 182.534 362.239 181.293 362.14 180.14C362.115 179.845 361.989 179.465 361.692 179.474C361.435 179.482 361.308 179.787 361.261 180.04C361.146 180.66 361.133 181.299 361.225 181.922C361.083 181.177 360.941 180.432 360.799 179.687C360.756 179.459 360.646 179.174 360.414 179.181C360.23 179.186 360.118 179.38 360.052 179.551C359.704 180.459 359.655 181.48 359.916 182.418C359.69 181.645 359.464 180.872 359.237 180.099C359.209 180.004 359.176 179.901 359.093 179.847C358.98 179.773 358.82 179.828 358.734 179.931C358.648 180.035 358.618 180.172 358.595 180.305C358.435 181.199 358.42 182.119 358.551 183.018C358.382 182.69 358.214 182.362 358.046 182.034C357.946 181.839 357.774 181.61 357.563 181.671C357.365 181.728 357.329 181.99 357.344 182.195C357.421 183.231 357.858 184.214 358.441 185.074C358.854 185.683 359.345 186.233 359.85 186.77C359.986 191.045 360.801 210.648 364.31 211.434C368.249 212.317 388.728 211.826 389.887 211.346C390.709 211.006 392.78 207.77 391.989 204.889Z" fill="#FFC68A"/>
<path d="M359.289 190.49L365.438 190.321C365.438 190.321 368.563 203.526 368.813 203.526C369.063 203.526 389.063 200.276 390.813 202.526C392.563 204.776 393.626 209.151 390.094 211.651C386.562 214.151 364.17 213.38 362.813 210.838C360.375 206.275 359.289 190.49 359.289 190.49Z" fill="#F05956"/>
<path opacity="0.5" d="M368.813 203.525C368.813 203.525 366.125 204.181 366.438 204.9C366.75 205.619 368.813 203.525 368.813 203.525Z" fill="#F05956"/>
<path opacity="0.5" d="M368.813 203.525C368.813 203.525 368.344 204.775 368.813 205.338C369.281 205.9 368.813 203.525 368.813 203.525Z" fill="#F05956"/>
<path opacity="0.5" d="M387.74 212.49C387.36 212.75 381.26 216.84 377.44 216.92C377.23 215.61 376.98 214.34 376.79 213.18C376.79 213.18 384.61 213.23 387.74 212.49Z" fill="#F05956"/>
<path d="M386.09 279.48C386.04 280.8 385.98 282.15 385.91 283.5C385.27 296.77 383.85 310.87 383.85 310.87L377.71 310.02L376.87 309.9L376.32 279.48H386.09Z" fill="#FFC68A"/>
<path opacity="0.5" d="M386.09 279.48C386.04 280.8 385.98 282.15 385.91 283.5C384.12 283.76 380.54 284.16 378.42 283.73L377.71 310.02L376.87 309.9L376.32 279.48H386.09Z" fill="#FFC68A"/>
<path d="M385.593 313.148C385.538 312.372 385.381 311.608 385.224 310.846C385.192 310.692 385.16 310.538 385.099 310.393C385.005 310.172 384.855 309.988 384.678 309.823C384.274 309.446 383.651 309.339 383.176 309.622C382.626 309.949 381.955 310.075 381.327 309.946C380.72 309.821 380.18 309.483 379.674 309.125C379.168 308.768 378.674 308.381 378.104 308.137C377.534 307.893 376.864 307.807 376.3 308.065C375.737 308.323 375.343 308.992 375.534 309.581C373.465 309.757 371.299 310.383 369.43 311.289C369.052 311.472 368.672 311.676 368.388 311.986C368.104 312.296 367.929 312.735 368.032 313.143L385.593 313.148Z" fill="#143C4A"/>
<path d="M394.58 279.48C394.52 281.16 394.44 282.87 394.35 284.59C393.68 297.54 392.34 310.87 392.34 310.87L386.38 310.04L385.36 309.9L384.81 279.48H394.58Z" fill="#FFC68A"/>
<path opacity="0.5" d="M394.58 279.48C394.52 281.16 394.44 282.87 394.35 284.59C391.51 285.14 386.38 284.75 386.38 284.75V310.04L385.36 309.9L384.81 279.48H394.58Z" fill="#FFC68A"/>
<path d="M394.083 313.148C394.028 312.372 393.871 311.608 393.714 310.846C393.682 310.692 393.65 310.538 393.589 310.393C393.495 310.172 393.345 309.988 393.169 309.823C392.765 309.446 392.142 309.339 391.667 309.622C391.117 309.949 390.446 310.075 389.818 309.946C389.211 309.821 388.671 309.483 388.165 309.125C387.659 308.768 387.165 308.381 386.595 308.137C386.025 307.893 385.355 307.807 384.791 308.065C384.227 308.323 383.834 308.992 384.025 309.581C381.956 309.757 379.79 310.383 377.921 311.289C377.543 311.472 377.163 311.676 376.879 311.986C376.595 312.296 376.42 312.735 376.523 313.143L394.083 313.148Z" fill="#143C4A"/>
<path d="M399.88 282.4C398.45 283 395.8 283.26 392.73 283.33C392.4 283.34 392.07 283.34 391.73 283.34C383.95 283.42 374.12 282.4 374.12 282.4C374.12 282.4 372.75 248.53 372.88 243.15C373 237.77 376.94 230.36 376.94 230.36L389.22 230.12L390.28 230.1L391.81 230.07C394.87 231.25 398.25 237.27 399 241.77C399.75 246.27 399.88 282.4 399.88 282.4Z" fill="#143C4A"/>
<g opacity="0.5">
<path d="M392.73 283.33C392.4 283.34 392.07 283.34 391.73 283.34C391.67 276.57 391.34 247.52 391.12 241.17C390.96 236.38 389.9 232.29 389.22 230.12L390.28 230.1C390.97 232.38 391.96 236.39 392.12 241.13C392.34 247.49 392.67 276.56 392.73 283.33Z" fill="#143C4A"/>
</g>
<path d="M397.185 188.286C397.05 188.129 396.902 188.034 396.749 187.967C396.781 187.121 396.739 186.284 396.712 185.497C396.677 184.526 396.163 183.672 395.362 183.234C393.396 182.157 389.474 180.46 386.266 181.882C385.553 182.199 385.01 182.848 384.773 183.632C384.357 185.014 384.053 185.651 383.552 188.039C383.365 188.93 383.215 189.798 383.117 190.585C382.96 191.897 382.964 192.974 383.257 193.519C384.428 195.684 391.208 196.052 394.578 193.118C395.127 192.641 395.535 192.119 395.847 191.572C397.108 190.841 397.828 189.036 397.185 188.286Z" fill="#FFC68A"/>
<path d="M391.389 191.121C391.23 191.836 390.521 192.287 389.805 192.128C389.09 191.969 388.639 191.26 388.798 190.544C388.957 189.829 389.667 189.378 390.382 189.537C391.098 189.696 391.549 190.405 391.389 191.121Z" fill="#FFD5A8"/>
<path d="M384.328 189.547C384.197 190.137 383.691 190.551 383.114 190.585C383.212 189.798 383.363 188.93 383.549 188.039C384.13 188.28 384.47 188.909 384.328 189.547Z" fill="#FFD5A8"/>
<path d="M386.926 186.51C387.045 186.867 386.998 187.276 386.865 187.634C386.734 187.997 386.521 188.319 386.286 188.611C386.164 188.757 386.033 188.886 385.961 189.007C385.884 189.123 385.871 189.257 385.901 189.405C385.963 189.701 386.251 189.938 386.601 190.06C386.239 190.097 385.788 189.919 385.621 189.497C385.532 189.3 385.542 189.038 385.647 188.836C385.753 188.637 385.889 188.509 385.994 188.371C386.222 188.1 386.427 187.816 386.597 187.513C386.763 187.21 386.886 186.882 386.926 186.51Z" fill="#EDAF6B"/>
<path d="M388.35 186.158C388.523 186.056 388.698 186.035 388.881 186.051C389.061 186.072 389.24 186.13 389.406 186.216C389.574 186.298 389.716 186.432 389.82 186.581C389.933 186.725 389.987 186.9 390.025 187.064C390.038 187.12 390.003 187.176 389.947 187.19C389.905 187.2 389.863 187.183 389.839 187.15L389.832 187.14C389.743 187.018 389.656 186.905 389.552 186.819C389.452 186.728 389.336 186.669 389.217 186.623C388.975 186.524 388.703 186.567 388.426 186.484L388.389 186.473C388.298 186.446 388.247 186.35 388.274 186.259C388.286 186.214 388.315 186.179 388.35 186.158Z" fill="#523329"/>
<path d="M386.203 185.987C385.916 185.945 385.689 185.791 385.427 185.777C385.299 185.769 385.169 185.773 385.041 185.813C384.911 185.847 384.784 185.912 384.651 185.985L384.64 185.991C384.589 186.019 384.526 186.001 384.498 185.95C384.477 185.912 384.482 185.867 384.508 185.835C384.612 185.703 384.735 185.568 384.899 185.485C385.056 185.395 385.242 185.333 385.429 185.331C385.615 185.323 385.802 185.347 385.974 185.404C386.146 185.468 386.296 185.561 386.409 185.727C386.463 185.805 386.442 185.912 386.364 185.966C386.327 185.991 386.284 186 386.243 185.994L386.203 185.987Z" fill="#523329"/>
<path d="M385.957 191.108C386.416 191.198 386.834 191.27 387.207 191.182C387.393 191.144 387.567 191.062 387.726 190.938C387.894 190.821 388.034 190.657 388.206 190.49C388.176 190.722 388.095 190.959 387.931 191.149C387.781 191.35 387.542 191.493 387.29 191.55C387.036 191.604 386.777 191.582 386.548 191.499C386.32 191.418 386.111 191.291 385.957 191.108Z" fill="#EDAF6B"/>
<path d="M388.68 188.365C388.588 188.777 388.314 189.067 388.068 189.012C387.822 188.957 387.697 188.578 387.789 188.166C387.881 187.754 388.155 187.464 388.401 187.519C388.646 187.574 388.771 187.953 388.68 188.365Z" fill="#523329"/>
<path d="M385.515 187.661C385.423 188.073 385.149 188.363 384.903 188.308C384.657 188.253 384.532 187.874 384.624 187.462C384.716 187.05 384.99 186.76 385.236 186.815C385.481 186.87 385.606 187.248 385.515 187.661Z" fill="#523329"/>
<path d="M396.17 189.82C396.12 189.634 395.967 189.514 395.809 189.461C395.649 189.404 395.48 189.427 395.318 189.477C394.998 189.592 394.689 189.806 394.425 190.037C394.359 190.095 394.26 190.088 394.202 190.022C394.149 189.961 394.151 189.871 394.203 189.812C394.397 189.594 394.682 189.54 394.923 189.549C395.047 189.554 395.17 189.578 395.294 189.632C395.416 189.685 395.541 189.788 395.593 189.929C395.695 190.21 395.568 190.491 395.364 190.636C395.158 190.778 394.914 190.8 394.698 190.767C394.914 190.726 395.125 190.652 395.258 190.509C395.388 190.379 395.427 190.162 395.355 190.034C395.293 189.908 395.106 189.859 394.914 189.858C394.725 189.853 394.544 189.912 394.438 190.023L394.216 189.799C394.519 189.546 394.855 189.333 395.26 189.245C395.46 189.204 395.689 189.219 395.871 189.327C396.049 189.43 396.186 189.624 396.17 189.82Z" fill="#EDAF6B"/>
<path d="M402.937 205.306C402.281 203.81 401.462 202.387 400.854 200.871C400.246 199.355 399.851 197.702 400.1 196.088C400.258 195.062 400.669 194.088 400.829 193.062C401.024 191.808 400.827 190.496 400.273 189.354C399.555 187.875 398.236 186.602 398.147 184.961C398.147 184.961 397.876 181.058 393.271 179.964C390.947 179.412 389.056 179.696 387.624 180.237C385.351 181.095 383.711 183.139 383.234 185.521C382.597 188.701 383.015 192.161 383.015 192.161C382.904 190.545 384.361 184.808 384.361 184.808C385.43 185.095 388.559 183.563 390.029 183.693C392.235 183.889 392.167 186.005 392.167 186.005C392.167 186.005 392.119 187.176 392.398 188.203C392.224 188.682 392.199 189.202 392.368 189.674C392.528 190.092 392.772 190.358 392.834 190.625C392.91 190.867 392.787 191.175 392.544 191.319L392.538 191.322C392.462 191.366 392.428 191.46 392.461 191.545C392.497 191.638 392.603 191.684 392.696 191.648C393.114 191.485 393.405 191.024 393.35 190.545C393.294 190.086 393.064 189.756 393.02 189.478C393.005 189.407 393.014 189.334 393.012 189.262C393.314 189.06 394.493 188.297 395.525 187.992C396.449 187.719 397.394 188.554 397.133 189.481C397.13 189.49 397.128 189.498 397.125 189.507C396.863 190.379 394.579 193.223 392.868 194.219L391.48 200.763C394.75 206.757 393.807 213.976 393.807 213.976C394.862 213.755 395.861 213.533 396.916 213.312C398.339 213.013 399.788 212.705 401.056 211.994C402.324 211.282 403.408 210.091 403.62 208.652C403.788 207.509 403.4 206.362 402.937 205.306Z" fill="#523329"/>
<path d="M386.473 327.811L386.068 323.913H367.471L367.876 327.811H386.473Z" fill="#CF3F3C"/>
<path d="M382.422 343.598L382.017 339.7H363.42L363.825 343.598H382.422Z" fill="#CF3F3C"/>
<path d="M378.372 359.385L377.967 355.487H359.369L359.774 359.385H378.372Z" fill="#CF3F3C"/>
<path d="M374.321 375.172L373.916 371.274H355.319L355.724 375.172H374.321Z" fill="#CF3F3C"/>
<path d="M367.11 394.781H372.191L390.577 313.075H385.495L367.11 394.781Z" fill="#CF3F3C"/>
<path d="M349.789 394.781H354.87L373.255 313.075H368.174L349.789 394.781Z" fill="#CF3F3C"/>
<path opacity="0.5" d="M369.739 313.08L351.349 394.78H349.789L368.179 313.08H369.739Z" fill="#CF3F3C"/>
<path d="M355.703 393.734H349.453V394.782H355.703V393.734Z" fill="#BA3836"/>
<path d="M372.869 393.734H366.619V394.782H372.869V393.734Z" fill="#BA3836"/>
<path d="M394.415 327.811V323.913H375.818V327.811H394.415Z" fill="#F05956"/>
<path opacity="0.8" d="M391.389 324.91H379.159L378.829 323.91H391.059L391.389 324.91Z" fill="#F05956"/>
<path d="M400.105 343.598V339.7H381.508V343.598H400.105Z" fill="#F05956"/>
<path opacity="0.8" d="M396.639 340.7H384.409L384.079 339.7H396.309L396.639 340.7Z" fill="#F05956"/>
<path d="M405.797 359.385V355.487H387.2V359.385H405.797Z" fill="#F05956"/>
<path opacity="0.8" d="M401.806 356.487H389.576L389.246 355.487H401.476L401.806 356.487Z" fill="#F05956"/>
<path d="M411.488 375.172V371.274H392.891V375.172H411.488Z" fill="#F05956"/>
<path opacity="0.8" d="M406.972 372.274H394.742L394.412 371.274H406.642L406.972 372.274Z" fill="#F05956"/>
<path d="M402.138 394.781H397.057L370.183 313.075H375.264L402.138 394.781Z" fill="#F05956"/>
<path d="M402.584 393.734H396.334V394.782H402.584V393.734Z" fill="#BA3836"/>
<path d="M419.459 394.781H414.378L387.504 313.075H392.585L419.459 394.781Z" fill="#F05956"/>
<path d="M419.876 393.734H413.626V394.782H419.876V393.734Z" fill="#BA3836"/>
<path d="M364.87 316.464V313.565C364.87 313.289 365.094 313.066 365.37 313.066H395.999C396.275 313.066 396.499 313.29 396.499 313.565V316.464C396.499 316.74 396.275 316.964 395.999 316.964H365.37C365.094 316.963 364.87 316.74 364.87 316.464Z" fill="#F05956"/>
<path opacity="0.8" d="M396.499 313.56V315.51C396.499 315.24 396.279 315.01 395.999 315.01H365.369C365.089 315.01 364.869 315.24 364.869 315.51V313.56C364.869 313.29 365.089 313.06 365.369 313.06H395.999C396.279 313.06 396.499 313.29 396.499 313.56Z" fill="#F05956"/>
<path d="M81.2929 0H78.8539V156.964H81.2929V0Z" fill="#131440" fill-opacity="0.5"/>
<path d="M350.226 179.764L347.796 179.562L349.799 155.51C350.032 152.706 351.969 150.466 354.733 149.804C357.404 149.163 360.065 150.243 361.495 152.559L361.561 152.666C363.363 155.659 363.983 159.074 364.583 162.376C364.705 163.049 364.827 163.72 364.959 164.386C366.112 170.211 367.962 174.139 370.782 176.749L369.126 178.539C365.908 175.561 363.824 171.215 362.566 164.859C362.432 164.181 362.307 163.497 362.183 162.812C361.596 159.583 361.041 156.534 359.473 153.929L359.419 153.84C358.366 152.137 356.602 151.864 355.3 152.175C353.993 152.488 352.404 153.602 352.229 155.711L350.226 179.764Z" fill="#131440" fill-opacity="0.5"/>
<path d="M354.076 0H351.637V84.608H354.076V0Z" fill="#131440" fill-opacity="0.5"/>
<path d="M332.734 305.378L73.5699 283.804C69.6279 283.476 66.6979 280.014 67.0259 276.071L78.9019 133.405C79.1219 130.765 81.4399 128.803 84.0799 129.023L347.96 150.989C350.6 151.209 352.562 153.527 352.342 156.167L340.466 298.833C340.138 302.776 336.676 305.706 332.734 305.378Z" fill="white"/>
<path d="M351.91 161.353L78.47 138.591L78.902 133.406C79.122 130.766 81.44 128.804 84.08 129.024L347.96 150.99C350.6 151.21 352.562 153.528 352.342 156.168L351.91 161.353Z" fill="#131440" fill-opacity="0.5"/>
<path d="M322.325 153.873C322.211 155.243 321.008 156.262 319.637 156.148C318.267 156.034 317.248 154.831 317.362 153.46C317.476 152.09 318.68 151.071 320.05 151.185C321.421 151.299 322.439 152.503 322.325 153.873Z" fill="#FFF0EB"/>
<path d="M332.959 154.758C332.845 156.128 331.642 157.147 330.271 157.033C328.901 156.919 327.882 155.716 327.996 154.345C328.11 152.975 329.313 151.956 330.684 152.07C332.055 152.184 333.073 153.388 332.959 154.758Z" fill="#FFF0EB"/>
<path d="M343.593 155.643C343.479 157.013 342.276 158.032 340.905 157.918C339.535 157.804 338.516 156.601 338.63 155.23C338.744 153.86 339.947 152.841 341.318 152.955C342.688 153.07 343.707 154.273 343.593 155.643Z" fill="#FFF0EB"/>
<path d="M203.785 185.332L201.123 185.11L200.837 188.543L197.148 188.236L197.434 184.803L188.631 184.07L188.843 181.525L197.412 171.799L201.38 172.129L193.417 181.365L197.807 181.73L198.062 178.671L201.635 178.968L201.38 182.027L204.042 182.249L203.785 185.332Z" fill="#F05956"/>
<path d="M205.309 180.686C205.758 175.292 209.001 172.483 213.017 172.817C217.057 173.153 219.769 176.458 219.32 181.852C218.871 187.246 215.65 190.058 211.61 189.722C207.594 189.388 204.86 186.08 205.309 180.686ZM215.513 181.536C215.822 177.824 214.642 176.174 212.75 176.016C210.883 175.86 209.447 177.293 209.138 181.005C208.829 184.718 210.009 186.368 211.876 186.523C213.768 186.681 215.204 185.249 215.513 181.536Z" fill="#F05956"/>
<path d="M235.746 187.993L233.084 187.771L232.798 191.204L229.109 190.897L229.395 187.464L220.592 186.731L220.804 184.186L229.373 174.46L233.341 174.79L225.378 184.026L229.768 184.391L230.023 181.332L233.596 181.629L233.341 184.688L236.003 184.91L235.746 187.993Z" fill="#F05956"/>
<path d="M217.073 199.089L172.459 195.373L168.76 239.786L213.374 243.501L217.073 199.089Z" fill="#131440" fill-opacity="0.5"/>
<path opacity="0.4" d="M217.07 199.07L213.37 243.48L168.76 239.76L168.98 237.09L192.593 239.052C203.152 239.929 212.422 232.081 213.3 221.523L215.18 198.91L217.07 199.07Z" fill="#131440" fill-opacity="0.5"/>
<path d="M250.289 201.855L217.072 199.089L213.373 243.501L246.59 246.268L250.289 201.855Z" fill="#131440" fill-opacity="0.5"/>
<path opacity="0.4" d="M246.85 243.09L246.59 246.24L213.37 243.48L217.07 199.07L219.63 199.28L218.111 217.499C217.05 230.219 226.501 241.391 239.221 242.453L246.85 243.09Z" fill="#131440" fill-opacity="0.5"/>
<path d="M226.896 229.216L216.776 228.373L216.038 237.236L226.158 238.079L226.896 229.216Z" fill="#F05956"/>
<path d="M245.287 229.616L236.1 228.851L235.928 230.92L245.114 231.685L245.287 229.616Z" fill="#F05956"/>
<path d="M244.997 233.101L233.787 232.168L233.614 234.237L244.825 235.17L244.997 233.101Z" fill="#F05956"/>
<path d="M252.228 221.187L219.013 218.422L217.07 199.068L250.285 201.833L252.228 221.187Z" fill="#131440" fill-opacity="0.5"/>
<path d="M211.5 217.796L166.888 214.083L172.06 195.321L216.672 199.035L211.5 217.796Z" fill="#131440" fill-opacity="0.5"/>
<path opacity="0.4" d="M212.03 215.87L211.5 217.8L166.89 214.08L172.06 195.32L173.88 195.47C171.469 204.219 177.603 213.006 186.647 213.758L212.03 215.87Z" fill="#131440" fill-opacity="0.5"/>
<path opacity="0.5" d="M217.07 199.07L215.56 217.21L214.87 219.71L170.74 216.04L170.87 214.41L211.5 217.8L216.67 199.04L217.07 199.07Z" fill="#131440" fill-opacity="0.5"/>
<path d="M252.228 221.187L219.013 218.422L217.07 199.068L250.285 201.833L252.228 221.187Z" fill="#131440" fill-opacity="0.5"/>
<path opacity="0.5" d="M248.7 220.9L248.57 222.46L216.43 219.79L215.84 213.87L217.07 199.07L219.01 218.42L248.7 220.9Z" fill="#131440" fill-opacity="0.5"/>
<path opacity="0.4" d="M252.23 221.19L219.01 218.42L218.78 216.14L232.304 217.266C241.201 218.007 248.59 210.494 247.7 201.61L250.29 201.83L252.23 221.19Z" fill="#131440" fill-opacity="0.5"/>
<path d="M347.34 262.95L227.33 266.42L181.11 267.75L65.0599 271.1L64.9499 267.44L64.6699 257.61L115.37 256.15H115.38L178.6 254.32L213.18 253.32L224.79 252.99L346.95 249.47L347.29 261.07L347.34 262.95Z" fill="#F05956"/>
<path d="M68.7655 267.665L68.5494 260.162L73.0776 260.031L73.1008 260.837L69.4812 260.942L69.5542 263.477L72.9394 263.379L72.9626 264.185L69.5774 264.283L69.6509 266.833L73.3292 266.727L73.3524 267.533L68.7655 267.665ZM74.9314 267.487L74.7153 259.984L77.2505 259.911C77.8367 259.894 78.3207 259.98 78.7026 260.17C79.0844 260.357 79.3707 260.621 79.5615 260.963C79.7522 261.304 79.8539 261.696 79.8667 262.138C79.8794 262.58 79.8003 262.975 79.6294 263.322C79.4585 263.669 79.1891 263.946 78.821 264.152C78.4529 264.356 77.9782 264.466 77.3969 264.483L75.3452 264.542L75.3216 263.721L77.3439 263.663C77.7445 263.652 78.0652 263.584 78.306 263.459C78.5494 263.335 78.7229 263.164 78.8266 262.946C78.9327 262.725 78.9814 262.465 78.9727 262.164C78.9641 261.864 78.9003 261.603 78.7815 261.381C78.6627 261.16 78.4782 260.992 78.228 260.877C77.9777 260.759 77.6498 260.706 77.2444 260.718L75.6471 260.764L75.84 267.461L74.9314 267.487ZM78.3661 264.015L80.3096 267.332L79.2545 267.363L77.3402 264.045L78.3661 264.015ZM81.5305 267.297L81.3144 259.794L83.8496 259.721C84.4358 259.704 84.9198 259.79 85.3017 259.98C85.6835 260.167 85.9698 260.431 86.1606 260.773C86.3513 261.114 86.453 261.506 86.4658 261.948C86.4785 262.39 86.3994 262.785 86.2285 263.132C86.0577 263.479 85.7882 263.756 85.4201 263.962C85.052 264.166 84.5773 264.276 83.996 264.293L81.9443 264.352L81.9207 263.531L83.943 263.473C84.3436 263.461 84.6643 263.393 84.9052 263.269C85.1485 263.145 85.322 262.974 85.4257 262.756C85.5318 262.535 85.5805 262.274 85.5718 261.974C85.5632 261.674 85.4994 261.413 85.3806 261.191C85.2618 260.97 85.0773 260.801 84.8271 260.686C84.5768 260.569 84.2489 260.516 83.8435 260.528L82.2462 260.574L82.4391 267.271L81.5305 267.297ZM84.9652 263.825L86.9087 267.142L85.8536 267.173L83.9393 263.854L84.9652 263.825ZM94.3523 263.173C94.3751 263.964 94.2519 264.652 93.9828 265.237C93.7136 265.822 93.3344 266.277 92.8452 266.604C92.3559 266.931 91.7913 267.104 91.1514 267.123C90.5115 267.141 89.9379 267.001 89.4307 266.703C88.9234 266.405 88.5186 265.971 88.2162 265.403C87.9139 264.835 87.7513 264.155 87.7285 263.364C87.7057 262.573 87.8288 261.885 88.098 261.3C88.3672 260.715 88.7464 260.259 89.2356 259.932C89.7248 259.605 90.2894 259.433 90.9293 259.414C91.5693 259.396 92.1428 259.536 92.6501 259.834C93.1574 260.132 93.5622 260.566 93.8645 261.134C94.1669 261.702 94.3295 262.382 94.3523 263.173ZM93.473 263.198C93.4543 262.549 93.3298 262.003 93.0996 261.563C92.8718 261.122 92.5702 260.792 92.1947 260.573C91.8218 260.354 91.4081 260.251 90.9538 260.264C90.4995 260.277 90.0913 260.404 89.7291 260.644C89.3694 260.884 89.0872 261.231 88.8827 261.684C88.6807 262.137 88.589 262.689 88.6077 263.339C88.6265 263.988 88.7497 264.533 88.9775 264.974C89.2078 265.415 89.5094 265.745 89.8824 265.964C90.2578 266.183 90.6727 266.286 91.1269 266.273C91.5812 266.26 91.9882 266.133 92.348 265.893C92.7102 265.653 92.9923 265.306 93.1944 264.853C93.3989 264.4 93.4918 263.848 93.473 263.198ZM95.9881 266.881L95.7719 259.377L98.3072 259.304C98.8934 259.288 99.3774 259.374 99.7593 259.563C100.141 259.75 100.427 260.015 100.618 260.356C100.809 260.698 100.911 261.09 100.923 261.532C100.936 261.974 100.857 262.368 100.686 262.716C100.515 263.063 100.246 263.339 99.8777 263.546C99.5096 263.749 99.0349 263.859 98.4536 263.876L96.4019 263.935L96.3783 263.115L98.4006 263.056C98.8012 263.045 99.1219 262.977 99.3627 262.853C99.606 262.728 99.7796 262.557 99.8833 262.339C99.9894 262.118 100.038 261.858 100.029 261.557C100.021 261.257 99.957 260.996 99.8382 260.775C99.7194 260.553 99.5349 260.385 99.2847 260.27C99.0344 260.152 98.7065 260.1 98.3011 260.111L96.7037 260.157L96.8967 266.854L95.9881 266.881ZM99.4227 263.408L101.366 266.726L100.311 266.756L98.3969 263.438L99.4227 263.408Z" fill="white"/>
<path d="M116.455 266.289L116.239 258.786L120.768 258.656L120.791 259.462L117.171 259.566L117.244 262.101L120.629 262.004L120.653 262.81L117.267 262.907L117.341 265.457L121.019 265.351L121.042 266.157L116.455 266.289ZM122.621 266.112L122.405 258.609L124.94 258.536C125.527 258.519 126.011 258.605 126.393 258.794C126.774 258.981 127.061 259.246 127.251 259.587C127.442 259.929 127.544 260.321 127.557 260.763C127.569 261.205 127.49 261.6 127.319 261.947C127.148 262.294 126.879 262.571 126.511 262.777C126.143 262.98 125.668 263.091 125.087 263.107L123.035 263.166L123.012 262.346L125.034 262.288C125.434 262.276 125.755 262.208 125.996 262.084C126.239 261.96 126.413 261.788 126.517 261.57C126.623 261.35 126.671 261.089 126.663 260.789C126.654 260.488 126.59 260.227 126.471 260.006C126.353 259.784 126.168 259.616 125.918 259.501C125.668 259.384 125.34 259.331 124.934 259.342L123.337 259.388L123.53 266.086L122.621 266.112ZM126.056 262.639L128 265.957L126.944 265.987L125.03 262.669L126.056 262.639ZM129.22 265.922L129.004 258.419L131.54 258.345C132.126 258.329 132.61 258.415 132.992 258.604C133.373 258.791 133.66 259.056 133.851 259.397C134.041 259.739 134.143 260.131 134.156 260.573C134.168 261.015 134.089 261.409 133.918 261.757C133.748 262.104 133.478 262.38 133.11 262.587C132.742 262.79 132.267 262.901 131.686 262.917L129.634 262.976L129.611 262.156L131.633 262.097C132.034 262.086 132.354 262.018 132.595 261.894C132.838 261.769 133.012 261.598 133.116 261.38C133.222 261.159 133.27 260.899 133.262 260.599C133.253 260.298 133.189 260.037 133.071 259.816C132.952 259.594 132.767 259.426 132.517 259.311C132.267 259.194 131.939 259.141 131.533 259.152L129.936 259.198L130.129 265.895L129.22 265.922ZM132.655 262.449L134.599 265.767L133.544 265.797L131.629 262.479L132.655 262.449ZM142.042 261.798C142.065 262.589 141.942 263.277 141.673 263.862C141.404 264.446 141.024 264.902 140.535 265.229C140.046 265.556 139.481 265.729 138.841 265.747C138.201 265.766 137.628 265.626 137.121 265.327C136.613 265.029 136.209 264.596 135.906 264.028C135.604 263.459 135.441 262.78 135.418 261.988C135.396 261.197 135.519 260.509 135.788 259.924C136.057 259.34 136.436 258.884 136.926 258.557C137.415 258.23 137.979 258.057 138.619 258.039C139.259 258.02 139.833 258.16 140.34 258.459C140.847 258.757 141.252 259.19 141.554 259.758C141.857 260.326 142.019 261.006 142.042 261.798ZM141.163 261.823C141.144 261.173 141.02 260.628 140.79 260.187C140.562 259.747 140.26 259.417 139.885 259.198C139.512 258.979 139.098 258.876 138.644 258.889C138.189 258.902 137.781 259.029 137.419 259.269C137.059 259.509 136.777 259.856 136.573 260.309C136.371 260.762 136.279 261.313 136.298 261.963C136.316 262.613 136.44 263.158 136.667 263.599C136.898 264.039 137.199 264.369 137.572 264.588C137.948 264.807 138.363 264.91 138.817 264.897C139.271 264.884 139.678 264.757 140.038 264.517C140.4 264.277 140.682 263.93 140.884 263.477C141.089 263.024 141.182 262.473 141.163 261.823ZM143.678 265.505L143.462 258.002L145.997 257.929C146.583 257.912 147.067 257.998 147.449 258.188C147.831 258.375 148.117 258.639 148.308 258.981C148.499 259.322 148.601 259.714 148.613 260.156C148.626 260.598 148.547 260.993 148.376 261.34C148.205 261.687 147.936 261.964 147.568 262.17C147.2 262.374 146.725 262.484 146.144 262.501L144.092 262.56L144.068 261.739L146.091 261.681C146.491 261.669 146.812 261.601 147.053 261.477C147.296 261.353 147.469 261.182 147.573 260.964C147.679 260.743 147.728 260.482 147.719 260.182C147.711 259.882 147.647 259.621 147.528 259.399C147.409 259.178 147.225 259.009 146.975 258.894C146.724 258.777 146.396 258.724 145.991 258.736L144.394 258.782L144.587 265.479L143.678 265.505ZM147.113 262.033L149.056 265.35L148.001 265.381L146.087 262.062L147.113 262.033Z" fill="white"/>
<path d="M164.144 264.914L163.928 257.411L168.457 257.28L168.48 258.086L164.86 258.191L164.933 260.726L168.318 260.628L168.342 261.434L164.956 261.532L165.03 264.082L168.708 263.976L168.731 264.782L164.144 264.914ZM170.31 264.736L170.094 257.233L172.629 257.16C173.216 257.143 173.7 257.23 174.082 257.419C174.463 257.606 174.75 257.87 174.94 258.212C175.131 258.554 175.233 258.945 175.246 259.387C175.258 259.83 175.179 260.224 175.008 260.571C174.837 260.918 174.568 261.195 174.2 261.401C173.832 261.605 173.357 261.715 172.776 261.732L170.724 261.791L170.701 260.97L172.723 260.912C173.123 260.901 173.444 260.833 173.685 260.708C173.928 260.584 174.102 260.413 174.205 260.195C174.312 259.974 174.36 259.714 174.352 259.413C174.343 259.113 174.279 258.852 174.16 258.63C174.042 258.409 173.857 258.241 173.607 258.126C173.357 258.008 173.029 257.955 172.623 257.967L171.026 258.013L171.219 264.71L170.31 264.736ZM173.745 261.264L175.689 264.581L174.633 264.612L172.719 261.294L173.745 261.264ZM176.909 264.546L176.693 257.043L179.228 256.97C179.815 256.953 180.299 257.039 180.681 257.229C181.062 257.416 181.349 257.68 181.539 258.022C181.73 258.363 181.832 258.755 181.845 259.197C181.857 259.639 181.778 260.034 181.607 260.381C181.437 260.728 181.167 261.005 180.799 261.211C180.431 261.415 179.956 261.525 179.375 261.542L177.323 261.601L177.3 260.78L179.322 260.722C179.722 260.71 180.043 260.643 180.284 260.518C180.527 260.394 180.701 260.223 180.805 260.005C180.911 259.784 180.959 259.524 180.951 259.223C180.942 258.923 180.878 258.662 180.76 258.44C180.641 258.219 180.456 258.051 180.206 257.936C179.956 257.818 179.628 257.765 179.222 257.777L177.625 257.823L177.818 264.52L176.909 264.546ZM180.344 261.074L182.288 264.391L181.233 264.422L179.318 261.103L180.344 261.074ZM189.731 260.422C189.754 261.213 189.631 261.901 189.362 262.486C189.093 263.071 188.713 263.527 188.224 263.854C187.735 264.181 187.17 264.353 186.53 264.372C185.89 264.39 185.317 264.25 184.81 263.952C184.302 263.654 183.897 263.22 183.595 262.652C183.293 262.084 183.13 261.404 183.107 260.613C183.085 259.822 183.208 259.134 183.477 258.549C183.746 257.964 184.125 257.509 184.615 257.182C185.104 256.855 185.668 256.682 186.308 256.663C186.948 256.645 187.522 256.785 188.029 257.083C188.536 257.381 188.941 257.815 189.243 258.383C189.546 258.951 189.708 259.631 189.731 260.422ZM188.852 260.447C188.833 259.798 188.709 259.253 188.478 258.812C188.251 258.371 187.949 258.041 187.574 257.822C187.201 257.603 186.787 257.5 186.333 257.513C185.878 257.526 185.47 257.653 185.108 257.893C184.748 258.133 184.466 258.48 184.262 258.933C184.06 259.387 183.968 259.938 183.987 260.588C184.005 261.237 184.129 261.783 184.356 262.223C184.587 262.664 184.888 262.994 185.261 263.213C185.637 263.432 186.052 263.535 186.506 263.522C186.96 263.509 187.367 263.382 187.727 263.142C188.089 262.902 188.371 262.555 188.573 262.102C188.778 261.649 188.871 261.097 188.852 260.447ZM191.367 264.13L191.151 256.627L193.686 256.554C194.272 256.537 194.756 256.623 195.138 256.812C195.52 256.999 195.806 257.264 195.997 257.605C196.188 257.947 196.29 258.339 196.302 258.781C196.315 259.223 196.236 259.617 196.065 259.965C195.894 260.312 195.625 260.588 195.257 260.795C194.888 260.998 194.414 261.109 193.832 261.125L191.781 261.184L191.757 260.364L193.78 260.305C194.18 260.294 194.501 260.226 194.742 260.102C194.985 259.977 195.158 259.806 195.262 259.588C195.368 259.367 195.417 259.107 195.408 258.807C195.4 258.506 195.336 258.245 195.217 258.024C195.098 257.802 194.914 257.634 194.664 257.519C194.413 257.402 194.085 257.349 193.68 257.36L192.083 257.406L192.276 264.103L191.367 264.13ZM194.802 260.657L196.745 263.975L195.69 264.005L193.776 260.687L194.802 260.657Z" fill="white"/>
<path d="M211.833 263.538L211.617 256.035L216.145 255.905L216.169 256.711L212.549 256.815L212.622 259.35L216.007 259.253L216.03 260.059L212.645 260.156L212.719 262.706L216.397 262.6L216.42 263.406L211.833 263.538ZM217.999 263.361L217.783 255.858L220.318 255.785C220.904 255.768 221.388 255.854 221.77 256.044C222.152 256.231 222.438 256.495 222.629 256.836C222.82 257.178 222.922 257.57 222.934 258.012C222.947 258.454 222.868 258.849 222.697 259.196C222.526 259.543 222.257 259.82 221.889 260.026C221.521 260.229 221.046 260.34 220.465 260.356L218.413 260.416L218.389 259.595L220.412 259.537C220.812 259.525 221.133 259.457 221.374 259.333C221.617 259.209 221.791 259.037 221.894 258.819C222 258.599 222.049 258.338 222.04 258.038C222.032 257.737 221.968 257.476 221.849 257.255C221.73 257.033 221.546 256.865 221.296 256.75C221.045 256.633 220.718 256.58 220.312 256.592L218.715 256.638L218.908 263.335L217.999 263.361ZM221.434 259.889L223.377 263.206L222.322 263.236L220.408 259.918L221.434 259.889ZM224.598 263.171L224.382 255.668L226.917 255.595C227.504 255.578 227.988 255.664 228.369 255.853C228.751 256.04 229.038 256.305 229.228 256.646C229.419 256.988 229.521 257.38 229.534 257.822C229.546 258.264 229.467 258.659 229.296 259.006C229.125 259.353 228.856 259.629 228.488 259.836C228.12 260.039 227.645 260.15 227.064 260.166L225.012 260.225L224.988 259.405L227.011 259.347C227.411 259.335 227.732 259.267 227.973 259.143C228.216 259.018 228.39 258.847 228.493 258.629C228.6 258.409 228.648 258.148 228.64 257.848C228.631 257.547 228.567 257.286 228.448 257.065C228.33 256.843 228.145 256.675 227.895 256.56C227.645 256.443 227.317 256.39 226.911 256.401L225.314 256.447L225.507 263.145L224.598 263.171ZM228.033 259.698L229.976 263.016L228.921 263.046L227.007 259.728L228.033 259.698ZM237.42 259.047C237.443 259.838 237.32 260.526 237.051 261.111C236.781 261.695 236.402 262.151 235.913 262.478C235.424 262.805 234.859 262.978 234.219 262.996C233.579 263.015 233.006 262.875 232.498 262.576C231.991 262.278 231.586 261.845 231.284 261.277C230.982 260.709 230.819 260.029 230.796 259.237C230.773 258.446 230.897 257.758 231.166 257.173C231.435 256.589 231.814 256.133 232.303 255.806C232.793 255.479 233.357 255.306 233.997 255.288C234.637 255.269 235.211 255.409 235.718 255.708C236.225 256.006 236.63 256.439 236.932 257.007C237.235 257.576 237.397 258.255 237.42 259.047ZM236.541 259.072C236.522 258.422 236.398 257.877 236.167 257.436C235.94 256.996 235.638 256.666 235.262 256.447C234.89 256.228 234.476 256.125 234.022 256.138C233.567 256.151 233.159 256.278 232.797 256.518C232.437 256.758 232.155 257.105 231.95 257.558C231.748 258.011 231.657 258.562 231.675 259.212C231.694 259.862 231.817 260.407 232.045 260.848C232.276 261.289 232.577 261.618 232.95 261.837C233.326 262.056 233.74 262.159 234.195 262.146C234.649 262.133 235.056 262.007 235.416 261.766C235.778 261.526 236.06 261.179 236.262 260.726C236.467 260.273 236.56 259.722 236.541 259.072ZM239.056 262.754L238.84 255.251L241.375 255.178C241.961 255.161 242.445 255.247 242.827 255.437C243.209 255.624 243.495 255.888 243.686 256.23C243.877 256.571 243.978 256.963 243.991 257.405C244.004 257.847 243.925 258.242 243.754 258.589C243.583 258.936 243.314 259.213 242.945 259.419C242.577 259.623 242.103 259.733 241.521 259.75L239.47 259.809L239.446 258.988L241.468 258.93C241.869 258.918 242.19 258.851 242.43 258.726C242.674 258.602 242.847 258.431 242.951 258.213C243.057 257.992 243.106 257.731 243.097 257.431C243.089 257.131 243.025 256.87 242.906 256.648C242.787 256.427 242.603 256.259 242.352 256.144C242.102 256.026 241.774 255.973 241.369 255.985L239.771 256.031L239.964 262.728L239.056 262.754ZM242.49 259.282L244.434 262.599L243.379 262.63L241.465 259.311L242.49 259.282Z" fill="white"/>
<path d="M259.523 262.163L259.307 254.66L263.835 254.529L263.859 255.335L260.239 255.44L260.312 257.975L263.697 257.877L263.72 258.683L260.335 258.781L260.409 261.331L264.087 261.225L264.11 262.031L259.523 262.163ZM265.689 261.985L265.473 254.482L268.008 254.409C268.594 254.392 269.079 254.479 269.46 254.668C269.842 254.855 270.129 255.119 270.319 255.461C270.51 255.803 270.612 256.194 270.624 256.636C270.637 257.079 270.558 257.473 270.387 257.82C270.216 258.167 269.947 258.444 269.579 258.65C269.211 258.854 268.736 258.964 268.155 258.981L266.103 259.04L266.079 258.219L268.102 258.161C268.502 258.15 268.823 258.082 269.064 257.957C269.307 257.833 269.481 257.662 269.584 257.444C269.69 257.223 269.739 256.963 269.731 256.662C269.722 256.362 269.658 256.101 269.539 255.879C269.42 255.658 269.236 255.49 268.986 255.375C268.736 255.257 268.408 255.204 268.002 255.216L266.405 255.262L266.598 261.959L265.689 261.985ZM269.124 258.513L271.067 261.83L270.012 261.861L268.098 258.543L269.124 258.513ZM272.288 261.795L272.072 254.292L274.607 254.219C275.194 254.202 275.678 254.288 276.06 254.478C276.441 254.665 276.728 254.929 276.918 255.271C277.109 255.612 277.211 256.004 277.224 256.446C277.236 256.888 277.157 257.283 276.986 257.63C276.815 257.977 276.546 258.254 276.178 258.46C275.81 258.664 275.335 258.774 274.754 258.791L272.702 258.85L272.679 258.029L274.701 257.971C275.101 257.96 275.422 257.892 275.663 257.767C275.906 257.643 276.08 257.472 276.184 257.254C276.29 257.033 276.338 256.773 276.33 256.472C276.321 256.172 276.257 255.911 276.138 255.689C276.02 255.468 275.835 255.3 275.585 255.185C275.335 255.067 275.007 255.014 274.601 255.026L273.004 255.072L273.197 261.769L272.288 261.795ZM275.723 258.323L277.667 261.64L276.611 261.671L274.697 258.352L275.723 258.323ZM285.11 257.671C285.133 258.462 285.01 259.15 284.741 259.735C284.471 260.32 284.092 260.776 283.603 261.103C283.114 261.43 282.549 261.602 281.909 261.621C281.269 261.639 280.696 261.499 280.188 261.201C279.681 260.903 279.276 260.469 278.974 259.901C278.672 259.333 278.509 258.653 278.486 257.862C278.463 257.071 278.587 256.383 278.856 255.798C279.125 255.213 279.504 254.758 279.993 254.431C280.483 254.104 281.047 253.931 281.687 253.912C282.327 253.894 282.901 254.034 283.408 254.332C283.915 254.63 284.32 255.064 284.622 255.632C284.925 256.2 285.087 256.88 285.11 257.671ZM284.231 257.696C284.212 257.047 284.088 256.502 283.857 256.061C283.63 255.62 283.328 255.29 282.953 255.071C282.58 254.852 282.166 254.749 281.712 254.762C281.257 254.775 280.849 254.902 280.487 255.142C280.127 255.382 279.845 255.729 279.641 256.182C279.439 256.636 279.347 257.187 279.366 257.837C279.384 258.486 279.508 259.032 279.735 259.472C279.966 259.913 280.267 260.243 280.64 260.462C281.016 260.681 281.43 260.784 281.885 260.771C282.339 260.758 282.746 260.631 283.106 260.391C283.468 260.151 283.75 259.804 283.952 259.351C284.157 258.898 284.25 258.346 284.231 257.696ZM286.746 261.379L286.53 253.876L289.065 253.803C289.651 253.786 290.135 253.872 290.517 254.061C290.899 254.248 291.185 254.513 291.376 254.854C291.567 255.196 291.668 255.588 291.681 256.03C291.694 256.472 291.615 256.867 291.444 257.214C291.273 257.561 291.004 257.837 290.636 258.044C290.267 258.247 289.793 258.358 289.211 258.374L287.16 258.433L287.136 257.613L289.158 257.554C289.559 257.543 289.88 257.475 290.121 257.351C290.364 257.226 290.537 257.055 290.641 256.837C290.747 256.617 290.796 256.356 290.787 256.056C290.779 255.755 290.715 255.494 290.596 255.273C290.477 255.051 290.293 254.883 290.042 254.768C289.792 254.651 289.464 254.598 289.059 254.609L287.462 254.655L287.655 261.352L286.746 261.379ZM290.181 257.906L292.124 261.224L291.069 261.254L289.155 257.936L290.181 257.906Z" fill="white"/>
<path d="M307.214 260.787L306.998 253.284L311.526 253.154L311.549 253.96L307.93 254.064L308.003 256.599L311.388 256.502L311.411 257.308L308.026 257.405L308.1 259.955L311.778 259.849L311.801 260.655L307.214 260.787ZM313.38 260.61L313.164 253.107L315.699 253.034C316.285 253.017 316.769 253.103 317.151 253.292C317.533 253.479 317.819 253.744 318.01 254.085C318.201 254.427 318.303 254.819 318.315 255.261C318.328 255.703 318.249 256.098 318.078 256.445C317.907 256.792 317.638 257.069 317.27 257.275C316.901 257.478 316.427 257.589 315.845 257.605L313.794 257.665L313.77 256.844L315.793 256.786C316.193 256.774 316.514 256.706 316.755 256.582C316.998 256.458 317.171 256.286 317.275 256.068C317.381 255.848 317.43 255.587 317.421 255.287C317.413 254.986 317.349 254.725 317.23 254.504C317.111 254.282 316.927 254.114 316.677 253.999C316.426 253.882 316.098 253.829 315.693 253.84L314.096 253.887L314.289 260.584L313.38 260.61ZM316.815 257.138L318.758 260.455L317.703 260.485L315.789 257.167L316.815 257.138ZM319.979 260.42L319.763 252.917L322.298 252.844C322.884 252.827 323.368 252.913 323.75 253.102C324.132 253.289 324.418 253.554 324.609 253.895C324.8 254.237 324.902 254.629 324.914 255.071C324.927 255.513 324.848 255.908 324.677 256.255C324.506 256.602 324.237 256.878 323.869 257.085C323.501 257.288 323.026 257.399 322.445 257.415L320.393 257.474L320.369 256.654L322.392 256.595C322.792 256.584 323.113 256.516 323.354 256.392C323.597 256.267 323.771 256.096 323.874 255.878C323.98 255.657 324.029 255.397 324.02 255.097C324.012 254.796 323.948 254.535 323.829 254.314C323.71 254.092 323.526 253.924 323.276 253.809C323.025 253.692 322.698 253.639 322.292 253.65L320.695 253.696L320.888 260.393L319.979 260.42ZM323.414 256.947L325.357 260.265L324.302 260.295L322.388 256.977L323.414 256.947ZM332.801 256.296C332.824 257.087 332.701 257.775 332.431 258.36C332.162 258.944 331.783 259.4 331.294 259.727C330.805 260.054 330.24 260.227 329.6 260.245C328.96 260.264 328.387 260.124 327.879 259.825C327.372 259.527 326.967 259.094 326.665 258.526C326.362 257.958 326.2 257.278 326.177 256.486C326.154 255.695 326.277 255.007 326.547 254.422C326.816 253.838 327.195 253.382 327.684 253.055C328.173 252.728 328.738 252.555 329.378 252.537C330.018 252.518 330.591 252.658 331.099 252.957C331.606 253.255 332.011 253.688 332.313 254.256C332.616 254.824 332.778 255.504 332.801 256.296ZM331.922 256.321C331.903 255.671 331.778 255.126 331.548 254.685C331.32 254.245 331.019 253.915 330.643 253.696C330.27 253.477 329.857 253.374 329.402 253.387C328.948 253.4 328.54 253.527 328.178 253.767C327.818 254.007 327.536 254.354 327.331 254.807C327.129 255.26 327.038 255.811 327.056 256.461C327.075 257.111 327.198 257.656 327.426 258.097C327.656 258.537 327.958 258.867 328.331 259.086C328.706 259.305 329.121 259.408 329.576 259.395C330.03 259.382 330.437 259.255 330.797 259.015C331.159 258.775 331.441 258.428 331.643 257.975C331.847 257.522 331.94 256.971 331.922 256.321ZM334.437 260.003L334.221 252.5L336.756 252.427C337.342 252.41 337.826 252.496 338.208 252.686C338.59 252.873 338.876 253.137 339.067 253.479C339.257 253.82 339.359 254.212 339.372 254.654C339.385 255.096 339.306 255.491 339.135 255.838C338.964 256.185 338.694 256.462 338.326 256.668C337.958 256.872 337.483 256.982 336.902 256.999L334.851 257.058L334.827 256.237L336.849 256.179C337.25 256.167 337.57 256.1 337.811 255.975C338.055 255.851 338.228 255.68 338.332 255.462C338.438 255.241 338.487 254.98 338.478 254.68C338.469 254.38 338.406 254.119 338.287 253.897C338.168 253.676 337.983 253.507 337.733 253.392C337.483 253.275 337.155 253.222 336.75 253.234L335.152 253.28L335.345 259.977L334.437 260.003ZM337.871 256.531L339.815 259.848L338.76 259.879L336.846 256.56L337.871 256.531Z" fill="white"/>
<path opacity="0.5" d="M213.5 266.659L181.11 267.75L65.06 271.1L64.95 267.44C87.07 266.55 161.62 267.38 164.33 266.66C166.8 266.01 131.21 259.14 115.38 256.15L178.6 254.32C183.24 257.55 213.5 266.659 213.5 266.659Z" fill="#F05956"/>
<path opacity="0.5" d="M347.34 262.95L227.33 266.42L213.18 253.32L224.79 252.99L260.83 257.5L293.461 262.909C297.474 263.574 301.549 263.788 305.61 263.547L347.29 261.07L347.34 262.95Z" fill="#F05956"/>
<path d="M346.91 271.72L345.62 281.64L345.17 285.1L65.1099 248.85L66.8399 235.47L74.9799 236.52L346.91 271.72Z" fill="#F05956"/>
<path opacity="0.5" d="M345.62 281.64L345.17 285.1L65.1099 248.85L66.8399 235.47L74.9799 236.52C75.3299 240.44 76.5199 244.98 80.0699 246.27C85.9799 248.42 301.02 275.95 345.62 281.64Z" fill="#F05956"/>
<path d="M69.3492 246.107L70.313 238.663L74.8054 239.244L74.7019 240.044L71.1109 239.579L70.7852 242.094L74.1436 242.529L74.0401 243.329L70.6817 242.894L70.3541 245.424L74.0034 245.896L73.8998 246.696L69.3492 246.107ZM75.4664 246.899L76.4301 239.455L78.9453 239.78C79.5269 239.856 79.9914 240.017 80.3388 240.264C80.6866 240.508 80.9278 240.814 81.0626 241.182C81.1973 241.549 81.2363 241.952 81.1795 242.39C81.1228 242.829 80.9827 243.206 80.7595 243.522C80.5363 243.838 80.2267 244.069 79.8309 244.215C79.4354 244.359 78.9493 244.393 78.3726 244.318L76.3372 244.055L76.4426 243.241L78.4489 243.5C78.8463 243.552 79.1737 243.535 79.4311 243.45C79.6908 243.366 79.8891 243.224 80.0257 243.025C80.1651 242.823 80.2541 242.574 80.2927 242.276C80.3313 241.978 80.3093 241.71 80.2267 241.473C80.1441 241.235 79.9882 241.04 79.7592 240.887C79.5305 240.732 79.215 240.628 78.8127 240.576L77.228 240.371L76.3678 247.015L75.4664 246.899ZM79.4031 244.008L80.8021 247.589L79.7553 247.454L78.3854 243.877L79.4031 244.008ZM82.0133 247.746L82.9771 240.302L85.4923 240.628C86.0738 240.703 86.5383 240.864 86.8858 241.112C87.2335 241.356 87.4748 241.662 87.6095 242.029C87.7443 242.397 87.7833 242.8 87.7265 243.238C87.6697 243.677 87.5297 244.054 87.3065 244.37C87.0832 244.686 86.7737 244.917 86.3779 245.063C85.9823 245.206 85.4962 245.241 84.9195 245.166L82.8841 244.902L82.9895 244.088L84.9959 244.348C85.3933 244.4 85.7206 244.383 85.978 244.298C86.2378 244.213 86.436 244.071 86.5727 243.872C86.7121 243.671 86.801 243.421 86.8396 243.123C86.8782 242.825 86.8562 242.558 86.7736 242.32C86.691 242.083 86.5352 241.888 86.3061 241.735C86.0774 241.58 85.7619 241.476 85.3597 241.424L83.775 241.219L82.9147 247.863L82.0133 247.746ZM85.9501 244.856L87.349 248.437L86.3022 248.302L84.9324 244.724L85.9501 244.856ZM95.3229 245.685C95.2212 246.47 94.9916 247.13 94.6341 247.666C94.2765 248.201 93.8305 248.591 93.2961 248.837C92.7616 249.084 92.1769 249.166 91.5421 249.083C90.9072 249.001 90.3627 248.773 89.9085 248.399C89.4544 248.025 89.1226 247.533 88.9131 246.925C88.7036 246.316 88.6497 245.619 88.7514 244.834C88.853 244.049 89.0826 243.389 89.4402 242.854C89.7977 242.319 90.2437 241.928 90.7782 241.682C91.3127 241.436 91.8973 241.354 92.5322 241.436C93.1671 241.518 93.7116 241.746 94.1657 242.121C94.6199 242.495 94.9517 242.986 95.1612 243.595C95.3706 244.203 95.4245 244.9 95.3229 245.685ZM94.4506 245.572C94.534 244.928 94.4966 244.37 94.3384 243.898C94.1825 243.427 93.9364 243.054 93.6 242.779C93.2661 242.504 92.8737 242.338 92.423 242.279C91.9723 242.221 91.5493 242.282 91.1539 242.462C90.7609 242.643 90.4279 242.941 90.1549 243.357C89.8842 243.773 89.7072 244.303 89.6237 244.947C89.5403 245.592 89.5764 246.15 89.7323 246.621C89.8905 247.092 90.1366 247.465 90.4706 247.74C90.807 248.015 91.2005 248.182 91.6512 248.24C92.1019 248.299 92.5238 248.237 92.9167 248.057C93.3121 247.876 93.6451 247.578 93.9158 247.162C94.1888 246.747 94.3671 246.217 94.4506 245.572ZM96.3566 249.603L97.3204 242.159L99.8356 242.485C100.417 242.56 100.882 242.722 101.229 242.969C101.577 243.213 101.818 243.519 101.953 243.886C102.088 244.254 102.127 244.657 102.07 245.095C102.013 245.534 101.873 245.911 101.65 246.227C101.427 246.543 101.117 246.774 100.721 246.92C100.326 247.063 99.8396 247.098 99.2628 247.023L97.2274 246.76L97.3328 245.945L99.3392 246.205C99.7366 246.257 100.064 246.24 100.321 246.155C100.581 246.07 100.779 245.928 100.916 245.729C101.055 245.528 101.144 245.278 101.183 244.98C101.222 244.682 101.2 244.415 101.117 244.177C101.034 243.94 100.879 243.745 100.649 243.592C100.421 243.437 100.105 243.333 99.703 243.281L98.1183 243.076L97.258 249.72L96.3566 249.603ZM100.293 246.713L101.692 250.294L100.646 250.159L99.2757 246.581L100.293 246.713Z" fill="white"/>
<path d="M116.665 252.231L117.628 244.787L122.121 245.368L122.017 246.168L118.426 245.703L118.101 248.218L121.459 248.653L121.355 249.453L117.997 249.018L117.669 251.548L121.319 252.02L121.215 252.82L116.665 252.231ZM122.782 253.023L123.745 245.579L126.261 245.904C126.842 245.98 127.307 246.141 127.654 246.388C128.002 246.633 128.243 246.938 128.378 247.306C128.513 247.673 128.552 248.076 128.495 248.515C128.438 248.953 128.298 249.33 128.075 249.646C127.852 249.963 127.542 250.193 127.146 250.339C126.751 250.483 126.265 250.517 125.688 250.442L123.652 250.179L123.758 249.365L125.764 249.624C126.162 249.676 126.489 249.659 126.746 249.574C127.006 249.49 127.204 249.348 127.341 249.149C127.48 248.947 127.569 248.698 127.608 248.4C127.647 248.102 127.625 247.834 127.542 247.597C127.459 247.359 127.304 247.164 127.074 247.011C126.846 246.856 126.53 246.752 126.128 246.7L124.543 246.495L123.683 253.139L122.782 253.023ZM126.718 250.132L128.117 253.713L127.071 253.578L125.701 250.001L126.718 250.132ZM129.329 253.87L130.292 246.426L132.808 246.752C133.389 246.827 133.854 246.989 134.201 247.236C134.549 247.48 134.79 247.786 134.925 248.153C135.06 248.521 135.099 248.924 135.042 249.362C134.985 249.801 134.845 250.178 134.622 250.494C134.399 250.81 134.089 251.041 133.693 251.187C133.298 251.33 132.812 251.365 132.235 251.29L130.199 251.027L130.305 250.212L132.311 250.472C132.709 250.524 133.036 250.507 133.293 250.422C133.553 250.337 133.751 250.195 133.888 249.996C134.027 249.795 134.116 249.545 134.155 249.247C134.194 248.949 134.172 248.682 134.089 248.444C134.006 248.207 133.85 248.012 133.621 247.859C133.393 247.704 133.077 247.6 132.675 247.548L131.09 247.343L130.23 253.987L129.329 253.87ZM133.265 250.98L134.664 254.561L133.618 254.426L132.248 250.848L133.265 250.98ZM142.638 251.809C142.537 252.594 142.307 253.254 141.949 253.79C141.592 254.325 141.146 254.715 140.611 254.962C140.077 255.208 139.492 255.29 138.857 255.207C138.223 255.125 137.678 254.897 137.224 254.523C136.77 254.149 136.438 253.657 136.228 253.049C136.019 252.44 135.965 251.743 136.067 250.958C136.168 250.173 136.398 249.513 136.755 248.978C137.113 248.443 137.559 248.052 138.094 247.806C138.628 247.56 139.213 247.478 139.848 247.56C140.482 247.642 141.027 247.871 141.481 248.245C141.935 248.619 142.267 249.11 142.476 249.719C142.686 250.327 142.74 251.024 142.638 251.809ZM141.766 251.696C141.849 251.052 141.812 250.494 141.654 250.022C141.498 249.551 141.252 249.178 140.915 248.903C140.581 248.628 140.189 248.462 139.738 248.403C139.288 248.345 138.865 248.406 138.469 248.586C138.076 248.767 137.743 249.065 137.47 249.481C137.2 249.897 137.022 250.427 136.939 251.071C136.856 251.716 136.892 252.274 137.048 252.745C137.206 253.216 137.452 253.589 137.786 253.864C138.122 254.139 138.516 254.306 138.967 254.364C139.417 254.423 139.839 254.361 140.232 254.181C140.627 254 140.96 253.702 141.231 253.286C141.504 252.871 141.682 252.341 141.766 251.696ZM143.672 255.727L144.636 248.284L147.151 248.609C147.732 248.685 148.197 248.846 148.544 249.093C148.892 249.337 149.133 249.643 149.268 250.011C149.403 250.378 149.442 250.781 149.385 251.219C149.328 251.658 149.188 252.035 148.965 252.351C148.742 252.667 148.432 252.898 148.036 253.044C147.641 253.187 147.155 253.222 146.578 253.147L144.543 252.884L144.648 252.069L146.654 252.329C147.052 252.381 147.379 252.364 147.637 252.279C147.896 252.194 148.095 252.053 148.231 251.853C148.371 251.652 148.46 251.403 148.498 251.105C148.537 250.806 148.515 250.539 148.432 250.301C148.35 250.064 148.194 249.869 147.965 249.716C147.736 249.561 147.421 249.457 147.018 249.405L145.434 249.2L144.573 255.844L143.672 255.727ZM147.609 252.837L149.008 256.418L147.961 256.283L146.591 252.705L147.609 252.837Z" fill="white"/>
<path d="M163.979 258.355L164.943 250.911L169.435 251.492L169.332 252.292L165.741 251.827L165.415 254.342L168.773 254.777L168.67 255.577L165.311 255.142L164.984 257.672L168.633 258.144L168.53 258.944L163.979 258.355ZM170.096 259.147L171.06 251.703L173.575 252.028C174.157 252.104 174.621 252.265 174.969 252.512C175.316 252.756 175.558 253.062 175.692 253.43C175.827 253.797 175.866 254.2 175.809 254.638C175.753 255.077 175.613 255.454 175.389 255.77C175.166 256.086 174.857 256.317 174.461 256.463C174.065 256.607 173.579 256.641 173.002 256.566L170.967 256.303L171.072 255.489L173.079 255.748C173.476 255.8 173.803 255.783 174.061 255.698C174.321 255.614 174.519 255.472 174.655 255.273C174.795 255.071 174.884 254.822 174.922 254.524C174.961 254.226 174.939 253.958 174.856 253.721C174.774 253.483 174.618 253.288 174.389 253.135C174.16 252.98 173.845 252.876 173.442 252.824L171.858 252.619L170.998 259.263L170.096 259.147ZM174.033 256.256L175.432 259.837L174.385 259.702L173.015 256.125L174.033 256.256ZM176.643 259.994L177.607 252.55L180.122 252.876C180.704 252.951 181.168 253.112 181.516 253.359C181.863 253.604 182.105 253.91 182.239 254.277C182.374 254.645 182.413 255.048 182.356 255.486C182.299 255.925 182.159 256.302 181.936 256.618C181.713 256.934 181.403 257.165 181.008 257.311C180.612 257.454 180.126 257.489 179.549 257.414L177.514 257.15L177.619 256.336L179.626 256.596C180.023 256.648 180.35 256.631 180.608 256.546C180.868 256.461 181.066 256.319 181.202 256.12C181.342 255.919 181.431 255.669 181.469 255.371C181.508 255.073 181.486 254.806 181.403 254.568C181.321 254.331 181.165 254.136 180.936 253.983C180.707 253.828 180.392 253.724 179.989 253.672L178.405 253.467L177.544 260.111L176.643 259.994ZM180.58 257.104L181.979 260.685L180.932 260.549L179.562 256.972L180.58 257.104ZM189.953 257.933C189.851 258.718 189.621 259.378 189.264 259.913C188.906 260.449 188.46 260.839 187.926 261.085C187.391 261.332 186.807 261.414 186.172 261.331C185.537 261.249 184.992 261.021 184.538 260.647C184.084 260.273 183.752 259.781 183.543 259.173C183.333 258.564 183.279 257.867 183.381 257.082C183.483 256.297 183.712 255.637 184.07 255.102C184.427 254.567 184.873 254.176 185.408 253.93C185.942 253.684 186.527 253.602 187.162 253.684C187.797 253.766 188.341 253.994 188.795 254.369C189.25 254.743 189.581 255.234 189.791 255.843C190 256.451 190.054 257.148 189.953 257.933ZM189.08 257.82C189.164 257.176 189.126 256.618 188.968 256.146C188.812 255.675 188.566 255.302 188.23 255.027C187.896 254.752 187.503 254.586 187.053 254.527C186.602 254.469 186.179 254.53 185.784 254.71C185.391 254.891 185.058 255.189 184.785 255.605C184.514 256.021 184.337 256.551 184.253 257.195C184.17 257.84 184.206 258.398 184.362 258.869C184.52 259.34 184.766 259.713 185.1 259.988C185.437 260.263 185.83 260.43 186.281 260.488C186.732 260.547 187.154 260.485 187.546 260.305C187.942 260.124 188.275 259.826 188.546 259.41C188.819 258.995 188.997 258.465 189.08 257.82ZM190.986 261.851L191.95 254.407L194.465 254.733C195.047 254.808 195.511 254.97 195.859 255.217C196.207 255.461 196.448 255.767 196.583 256.134C196.717 256.502 196.756 256.905 196.7 257.343C196.643 257.782 196.503 258.159 196.28 258.475C196.056 258.791 195.747 259.022 195.351 259.168C194.955 259.311 194.469 259.346 193.893 259.271L191.857 259.008L191.963 258.193L193.969 258.453C194.366 258.505 194.694 258.488 194.951 258.403C195.211 258.318 195.409 258.176 195.546 257.977C195.685 257.776 195.774 257.526 195.813 257.228C195.851 256.93 195.829 256.663 195.747 256.425C195.664 256.188 195.508 255.993 195.279 255.84C195.05 255.685 194.735 255.581 194.333 255.529L192.748 255.324L191.888 261.968L190.986 261.851ZM194.923 258.961L196.322 262.542L195.275 262.407L193.905 258.829L194.923 258.961Z" fill="white"/>
<path d="M211.294 264.479L212.258 257.035L216.751 257.616L216.647 258.416L213.056 257.951L212.73 260.466L216.089 260.901L215.985 261.701L212.627 261.266L212.299 263.796L215.949 264.268L215.845 265.068L211.294 264.479ZM217.412 265.271L218.375 257.827L220.891 258.152C221.472 258.228 221.937 258.389 222.284 258.636C222.632 258.881 222.873 259.186 223.008 259.554C223.143 259.921 223.182 260.324 223.125 260.763C223.068 261.201 222.928 261.578 222.705 261.894C222.481 262.21 222.172 262.441 221.776 262.587C221.381 262.731 220.894 262.765 220.318 262.69L218.282 262.427L218.388 261.613L220.394 261.872C220.791 261.924 221.119 261.907 221.376 261.822C221.636 261.738 221.834 261.596 221.971 261.397C222.11 261.195 222.199 260.946 222.238 260.648C222.276 260.35 222.254 260.082 222.172 259.845C222.089 259.607 221.933 259.412 221.704 259.259C221.476 259.104 221.16 259 220.758 258.948L219.173 258.743L218.313 265.387L217.412 265.271ZM221.348 262.38L222.747 265.961L221.7 265.826L220.331 262.249L221.348 262.38ZM223.959 266.118L224.922 258.674L227.437 259C228.019 259.075 228.484 259.237 228.831 259.484C229.179 259.728 229.42 260.034 229.555 260.401C229.689 260.769 229.728 261.172 229.672 261.61C229.615 262.049 229.475 262.426 229.252 262.742C229.028 263.058 228.719 263.289 228.323 263.435C227.928 263.578 227.441 263.613 226.865 263.538L224.829 263.275L224.935 262.46L226.941 262.72C227.338 262.772 227.666 262.755 227.923 262.67C228.183 262.585 228.381 262.443 228.518 262.244C228.657 262.043 228.746 261.793 228.785 261.495C228.823 261.197 228.801 260.93 228.719 260.692C228.636 260.455 228.48 260.26 228.251 260.107C228.023 259.952 227.707 259.848 227.305 259.796L225.72 259.591L224.86 266.235L223.959 266.118ZM227.895 263.228L229.294 266.809L228.247 266.674L226.878 263.096L227.895 263.228ZM237.268 264.057C237.166 264.842 236.937 265.502 236.579 266.038C236.222 266.573 235.776 266.963 235.241 267.21C234.707 267.456 234.122 267.538 233.487 267.455C232.852 267.373 232.308 267.145 231.854 266.771C231.4 266.397 231.068 265.905 230.858 265.297C230.649 264.688 230.595 263.991 230.697 263.206C230.798 262.421 231.028 261.761 231.385 261.226C231.743 260.691 232.189 260.3 232.723 260.054C233.258 259.808 233.843 259.726 234.477 259.808C235.112 259.89 235.657 260.119 236.111 260.493C236.565 260.867 236.897 261.358 237.106 261.967C237.316 262.575 237.37 263.272 237.268 264.057ZM236.396 263.944C236.479 263.3 236.442 262.742 236.284 262.27C236.128 261.799 235.882 261.426 235.545 261.151C235.211 260.876 234.819 260.71 234.368 260.651C233.918 260.593 233.494 260.654 233.099 260.834C232.706 261.015 232.373 261.313 232.1 261.729C231.829 262.145 231.652 262.675 231.569 263.319C231.485 263.964 231.522 264.522 231.677 264.993C231.836 265.464 232.082 265.837 232.416 266.112C232.752 266.387 233.146 266.554 233.596 266.612C234.047 266.671 234.469 266.609 234.862 266.429C235.257 266.248 235.59 265.95 235.861 265.534C236.134 265.119 236.312 264.589 236.396 263.944ZM238.302 267.975L239.266 260.532L241.781 260.857C242.362 260.933 242.827 261.094 243.174 261.341C243.522 261.585 243.763 261.891 243.898 262.259C244.033 262.626 244.072 263.029 244.015 263.467C243.958 263.906 243.818 264.283 243.595 264.599C243.372 264.915 243.062 265.146 242.666 265.292C242.271 265.435 241.785 265.47 241.208 265.395L239.173 265.132L239.278 264.317L241.284 264.577C241.682 264.629 242.009 264.612 242.267 264.527C242.526 264.442 242.725 264.301 242.861 264.101C243.001 263.9 243.09 263.651 243.128 263.353C243.167 263.054 243.145 262.787 243.062 262.549C242.98 262.312 242.824 262.117 242.595 261.964C242.366 261.809 242.05 261.705 241.648 261.653L240.063 261.448L239.203 268.092L238.302 267.975ZM242.239 265.085L243.638 268.666L242.591 268.531L241.221 264.953L242.239 265.085Z" fill="white"/>
<path d="M258.609 270.602L259.573 263.159L264.065 263.74L263.962 264.54L260.371 264.075L260.045 266.59L263.403 267.025L263.3 267.825L259.941 267.39L259.614 269.92L263.263 270.392L263.159 271.192L258.609 270.602ZM264.726 271.395L265.69 263.951L268.205 264.276C268.787 264.352 269.251 264.513 269.598 264.76C269.946 265.004 270.187 265.31 270.322 265.678C270.457 266.045 270.496 266.448 270.439 266.886C270.382 267.325 270.242 267.702 270.019 268.018C269.796 268.334 269.486 268.565 269.091 268.711C268.695 268.855 268.209 268.889 267.632 268.814L265.597 268.551L265.702 267.737L267.709 267.996C268.106 268.048 268.433 268.031 268.691 267.946C268.95 267.862 269.149 267.72 269.285 267.521C269.425 267.319 269.514 267.07 269.552 266.772C269.591 266.474 269.569 266.206 269.486 265.969C269.404 265.731 269.248 265.536 269.019 265.383C268.79 265.228 268.475 265.124 268.072 265.072L266.488 264.867L265.627 271.511L264.726 271.395ZM268.663 268.504L270.062 272.085L269.015 271.95L267.645 268.373L268.663 268.504ZM271.273 272.242L272.237 264.798L274.752 265.124C275.333 265.199 275.798 265.36 276.145 265.607C276.493 265.852 276.734 266.158 276.869 266.525C277.004 266.893 277.043 267.296 276.986 267.734C276.929 268.173 276.789 268.55 276.566 268.866C276.343 269.182 276.033 269.413 275.638 269.559C275.242 269.702 274.756 269.737 274.179 269.662L272.144 269.398L272.249 268.584L274.256 268.844C274.653 268.895 274.98 268.879 275.238 268.794C275.497 268.709 275.696 268.567 275.832 268.368C275.972 268.167 276.061 267.917 276.099 267.619C276.138 267.321 276.116 267.054 276.033 266.816C275.951 266.579 275.795 266.384 275.566 266.231C275.337 266.076 275.022 265.972 274.619 265.92L273.035 265.715L272.174 272.359L271.273 272.242ZM275.21 269.352L276.609 272.933L275.562 272.797L274.192 269.22L275.21 269.352ZM284.583 270.181C284.481 270.966 284.251 271.626 283.894 272.161C283.536 272.697 283.09 273.087 282.556 273.333C282.021 273.58 281.437 273.662 280.802 273.579C280.167 273.497 279.622 273.269 279.168 272.895C278.714 272.521 278.382 272.029 278.173 271.421C277.963 270.812 277.909 270.115 278.011 269.33C278.113 268.545 278.342 267.885 278.7 267.35C279.057 266.815 279.503 266.424 280.038 266.178C280.572 265.932 281.157 265.85 281.792 265.932C282.427 266.014 282.971 266.242 283.425 266.617C283.88 266.991 284.211 267.482 284.421 268.091C284.63 268.699 284.684 269.396 284.583 270.181ZM283.71 270.068C283.794 269.424 283.756 268.866 283.598 268.394C283.442 267.923 283.196 267.55 282.86 267.275C282.526 267 282.133 266.834 281.683 266.775C281.232 266.717 280.809 266.778 280.414 266.958C280.021 267.139 279.688 267.437 279.415 267.853C279.144 268.268 278.967 268.799 278.883 269.443C278.8 270.088 278.836 270.646 278.992 271.117C279.15 271.588 279.396 271.961 279.73 272.236C280.067 272.511 280.46 272.678 280.911 272.736C281.362 272.794 281.783 272.733 282.176 272.553C282.572 272.372 282.905 272.074 283.175 271.658C283.448 271.243 283.627 270.713 283.71 270.068ZM285.616 274.099L286.58 266.655L289.095 266.981C289.677 267.056 290.141 267.218 290.489 267.465C290.836 267.709 291.078 268.015 291.212 268.382C291.347 268.75 291.386 269.153 291.329 269.591C291.273 270.03 291.133 270.407 290.909 270.723C290.686 271.039 290.377 271.27 289.981 271.416C289.585 271.559 289.099 271.594 288.522 271.519L286.487 271.256L286.592 270.441L288.599 270.701C288.996 270.753 289.324 270.736 289.581 270.651C289.841 270.566 290.039 270.424 290.176 270.225C290.315 270.024 290.404 269.774 290.443 269.476C290.481 269.178 290.459 268.911 290.377 268.673C290.294 268.436 290.138 268.241 289.909 268.088C289.68 267.933 289.365 267.829 288.963 267.777L287.378 267.572L286.518 274.216L285.616 274.099ZM289.553 271.209L290.952 274.79L289.905 274.655L288.535 271.077L289.553 271.209Z" fill="white"/>
<path d="M305.925 276.727L306.889 269.283L311.381 269.865L311.278 270.664L307.687 270.199L307.361 272.714L310.72 273.149L310.616 273.949L307.258 273.514L306.93 276.044L310.579 276.516L310.476 277.316L305.925 276.727ZM312.042 277.519L313.006 270.075L315.521 270.401C316.103 270.476 316.567 270.637 316.915 270.884C317.262 271.129 317.504 271.435 317.639 271.802C317.773 272.169 317.812 272.572 317.755 273.011C317.699 273.449 317.559 273.827 317.335 274.143C317.112 274.459 316.803 274.69 316.407 274.835C316.011 274.979 315.525 275.013 314.949 274.939L312.913 274.675L313.018 273.861L315.025 274.121C315.422 274.172 315.75 274.155 316.007 274.07C316.267 273.986 316.465 273.844 316.602 273.645C316.741 273.444 316.83 273.194 316.869 272.896C316.907 272.598 316.885 272.33 316.803 272.093C316.72 271.855 316.564 271.66 316.335 271.507C316.106 271.352 315.791 271.249 315.389 271.196L313.804 270.991L312.944 277.635L312.042 277.519ZM315.979 274.628L317.378 278.21L316.331 278.074L314.961 274.497L315.979 274.628ZM318.589 278.366L319.553 270.923L322.068 271.248C322.65 271.324 323.114 271.485 323.462 271.732C323.809 271.976 324.051 272.282 324.185 272.65C324.32 273.017 324.359 273.42 324.302 273.858C324.246 274.297 324.106 274.674 323.882 274.99C323.659 275.306 323.35 275.537 322.954 275.683C322.558 275.826 322.072 275.861 321.495 275.786L319.46 275.523L319.565 274.708L321.572 274.968C321.969 275.02 322.297 275.003 322.554 274.918C322.814 274.833 323.012 274.692 323.149 274.492C323.288 274.291 323.377 274.042 323.416 273.744C323.454 273.445 323.432 273.178 323.35 272.94C323.267 272.703 323.111 272.508 322.882 272.355C322.653 272.2 322.338 272.096 321.936 272.044L320.351 271.839L319.491 278.483L318.589 278.366ZM322.526 275.476L323.925 279.057L322.878 278.922L321.508 275.344L322.526 275.476ZM331.899 276.305C331.797 277.09 331.568 277.751 331.21 278.286C330.852 278.821 330.406 279.211 329.872 279.458C329.338 279.704 328.753 279.786 328.118 279.704C327.483 279.621 326.939 279.393 326.484 279.019C326.03 278.645 325.699 278.154 325.489 277.545C325.28 276.936 325.226 276.24 325.327 275.454C325.429 274.669 325.659 274.009 326.016 273.474C326.374 272.939 326.82 272.548 327.354 272.302C327.889 272.056 328.473 271.974 329.108 272.056C329.743 272.138 330.287 272.367 330.742 272.741C331.196 273.115 331.528 273.606 331.737 274.215C331.947 274.823 332 275.52 331.899 276.305ZM331.026 276.192C331.11 275.548 331.073 274.99 330.914 274.519C330.758 274.048 330.512 273.674 330.176 273.399C329.842 273.124 329.45 272.958 328.999 272.899C328.548 272.841 328.125 272.902 327.73 273.083C327.337 273.263 327.004 273.561 326.731 273.977C326.46 274.393 326.283 274.923 326.2 275.567C326.116 276.212 326.152 276.77 326.308 277.241C326.466 277.712 326.713 278.085 327.047 278.36C327.383 278.635 327.776 278.802 328.227 278.86C328.678 278.919 329.1 278.858 329.493 278.677C329.888 278.496 330.221 278.198 330.492 277.782C330.765 277.367 330.943 276.837 331.026 276.192ZM332.933 280.223L333.896 272.78L336.412 273.105C336.993 273.181 337.458 273.342 337.805 273.589C338.153 273.833 338.394 274.139 338.529 274.507C338.664 274.874 338.703 275.277 338.646 275.715C338.589 276.154 338.449 276.531 338.226 276.847C338.002 277.163 337.693 277.394 337.297 277.54C336.902 277.684 336.415 277.718 335.839 277.643L333.803 277.38L333.909 276.566L335.915 276.825C336.313 276.877 336.64 276.86 336.897 276.775C337.157 276.69 337.355 276.549 337.492 276.35C337.631 276.148 337.72 275.899 337.759 275.601C337.797 275.303 337.775 275.035 337.693 274.798C337.61 274.56 337.454 274.365 337.225 274.212C336.997 274.057 336.681 273.953 336.279 273.901L334.694 273.696L333.834 280.34L332.933 280.223ZM336.869 277.333L338.268 280.914L337.221 280.779L335.852 277.201L336.869 277.333Z" fill="white"/>
<path d="M45.8849 168.896V163.854H42.3249C42.0599 162.751 41.6249 161.717 41.0489 160.776L43.5669 158.258L40.0019 154.693L37.4839 157.211C36.5429 156.635 35.5089 156.2 34.4059 155.934V152.375H29.3639V155.934C28.2609 156.2 27.2269 156.634 26.2859 157.211L23.7679 154.693L20.2029 158.258L22.7209 160.776C22.1449 161.717 21.7099 162.751 21.4439 163.854H17.8839V168.896H21.4439C21.7089 169.999 22.1439 171.033 22.7209 171.974L20.2029 174.492L23.7679 178.057L26.2859 175.539C27.2269 176.115 28.2609 176.55 29.3639 176.816V180.375H34.4059V176.816C35.5089 176.55 36.5429 176.116 37.4839 175.539L40.0019 178.057L43.5669 174.492L41.0489 171.974C41.6249 171.033 42.0599 169.999 42.3249 168.896H45.8849ZM31.8849 170C29.8829 170 28.2599 168.377 28.2599 166.375C28.2599 164.373 29.8829 162.75 31.8849 162.75C33.8869 162.75 35.5099 164.373 35.5099 166.375C35.5099 168.377 33.8869 170 31.8849 170Z" fill="#131440" fill-opacity="0.5"/>
<path d="M54.7599 148.358V144.892H52.3129C52.1299 144.134 51.8319 143.423 51.4349 142.776L53.1659 141.045L50.7149 138.594L48.9839 140.325C48.3369 139.929 47.6259 139.63 46.8679 139.447V137H43.4019V139.447C42.6439 139.629 41.9329 139.928 41.2859 140.325L39.5549 138.594L37.1039 141.045L38.8349 142.776C38.4389 143.423 38.1399 144.134 37.9569 144.892H35.5099V148.358H37.9569C38.1389 149.116 38.4379 149.827 38.8349 150.474L37.1039 152.205L39.5549 154.656L41.2859 152.925C41.9329 153.321 42.6439 153.62 43.4019 153.803V156.25H46.8679V153.803C47.6259 153.621 48.3369 153.322 48.9839 152.925L50.7149 154.656L53.1659 152.205L51.4349 150.474C51.8309 149.827 52.1299 149.116 52.3129 148.358H54.7599ZM45.1349 149.117C43.7589 149.117 42.6429 148.001 42.6429 146.625C42.6429 145.249 43.7589 144.133 45.1349 144.133C46.5109 144.133 47.6269 145.249 47.6269 146.625C47.6269 148.001 46.5119 149.117 45.1349 149.117Z" fill="#131440" fill-opacity="0.5"/>
<path d="M380.953 120.221V116.755H378.506C378.323 115.997 378.025 115.286 377.628 114.639L379.359 112.908L376.908 110.457L375.177 112.188C374.53 111.792 373.819 111.493 373.061 111.31V108.863H369.595V111.31C368.837 111.492 368.126 111.791 367.479 112.188L365.748 110.457L363.297 112.908L365.028 114.639C364.632 115.286 364.333 115.997 364.15 116.755H361.703V120.221H364.15C364.332 120.979 364.631 121.69 365.028 122.337L363.297 124.068L365.748 126.519L367.479 124.788C368.126 125.184 368.837 125.483 369.595 125.666V128.113H373.061V125.666C373.819 125.483 374.53 125.185 375.177 124.788L376.908 126.519L379.359 124.068L377.628 122.337C378.024 121.69 378.323 120.979 378.506 120.221H380.953ZM371.328 120.98C369.952 120.98 368.836 119.864 368.836 118.488C368.836 117.112 369.952 115.996 371.328 115.996C372.704 115.996 373.82 117.112 373.82 118.488C373.82 119.865 372.704 120.98 371.328 120.98Z" fill="#131440" fill-opacity="0.5"/>
<path d="M397.895 129.846V126.38H395.448C395.266 125.622 394.967 124.911 394.57 124.264L396.301 122.533L393.85 120.082L392.119 121.813C391.472 121.417 390.761 121.118 390.003 120.935V118.488H386.537V120.935C385.779 121.117 385.068 121.416 384.421 121.813L382.69 120.082L380.239 122.533L381.97 124.264C381.574 124.911 381.275 125.622 381.092 126.38H378.645V129.846H381.092C381.275 130.604 381.573 131.315 381.97 131.962L380.239 133.693L382.69 136.144L384.421 134.413C385.068 134.809 385.779 135.108 386.537 135.291V137.738H390.003V135.291C390.761 135.108 391.472 134.81 392.119 134.413L393.85 136.144L396.301 133.693L394.57 131.962C394.966 131.315 395.265 130.604 395.448 129.846H397.895ZM388.27 130.605C386.894 130.605 385.778 129.489 385.778 128.113C385.778 126.737 386.894 125.621 388.27 125.621C389.646 125.621 390.762 126.737 390.762 128.113C390.762 129.49 389.646 130.605 388.27 130.605Z" fill="#131440" fill-opacity="0.5"/>
<path d="M287.646 322.569C287.646 322.569 284.61 338.28 283.538 343.81C282.989 346.601 282.515 349.657 282.218 352.797C280.857 367.391 276.14 391.86 276.14 391.86L275.136 391.751L270.228 391.225L272.118 355.124L272.773 342.482L273.802 322.928L285.75 314.438C285.75 314.438 287.5 317.22 287.646 322.569Z" fill="#FFB894"/>
<path opacity="0.5" d="M283.538 343.81C282.989 346.601 282.515 349.657 282.218 352.797C280.857 367.391 276.14 391.86 276.14 391.86L275.136 391.751L280.169 356.529L272.118 355.124L272.773 342.482C277.545 342.951 283.515 343.672 283.515 343.672C283.515 343.672 283.53 343.72 283.538 343.81Z" fill="#FFB894"/>
<path d="M275.705 394.743C276.372 394.834 277.221 394.008 277.342 393.345C277.435 392.837 277.463 392.318 277.424 391.804C277.405 391.555 277.365 391.294 277.211 391.097C277.022 390.856 276.701 390.763 276.398 390.714C274.465 390.403 272.442 391.271 270.619 390.556C270.937 389.865 271.002 389.06 270.8 388.326C270.721 388.04 270.592 387.75 270.35 387.577C269.794 387.181 269.045 387.592 268.464 387.949C266.267 389.299 263.625 389.91 261.059 389.664C260.475 389.608 259.89 389.509 259.305 389.558C258.72 389.607 258.12 389.828 257.762 390.293C257.404 390.758 257.378 391.498 257.81 391.894L275.705 394.743Z" fill="#6376BF"/>
<path d="M276.941 311.897C276.941 311.897 273.072 318.673 272.709 322.624C272.347 326.575 270.544 352.851 270.544 352.851L282.924 354.185L289.749 310.73L276.941 311.897Z" fill="#F05956"/>
<path opacity="0.5" d="M276.883 353.519L286.464 331.654L282.925 354.184L276.883 353.519Z" fill="#F05956"/>
<path d="M326.395 378.171L325.133 379.963L322.983 383.041L297.511 367.218C295.659 366.071 294.356 364.222 293.881 362.096L292.071 356.116L290.691 351.552L288.265 338.709L286.74 330.684L286.738 330.664L285.67 325.008L287.648 322.578L287.647 322.568L294.926 313.63C294.926 313.63 297.977 317.69 298.14 329.062C298.146 329.132 298.153 329.202 298.15 329.282C298.203 332.731 300.086 342.26 301.745 351.537C302.18 353.998 302.604 356.771 303.008 359.666C314.127 367.962 326.395 378.171 326.395 378.171Z" fill="#FFB894"/>
<path opacity="0.5" d="M326.395 378.171L325.133 379.963C318.964 375.525 301.916 363.212 300.897 362.17C299.647 360.908 300.277 355.368 300.277 355.368L292.071 356.116L290.691 351.552L288.265 338.709L298.14 329.062C298.146 329.132 298.153 329.202 298.15 329.282C298.203 332.731 300.086 342.26 301.745 351.537C302.18 353.998 302.604 356.771 303.008 359.666C314.127 367.962 326.395 378.171 326.395 378.171Z" fill="#FFB894"/>
<path d="M328.656 380.063C329.092 379.55 328.853 378.39 328.36 377.931C327.982 377.579 327.56 377.276 327.105 377.032C326.885 376.914 326.643 376.807 326.395 376.831C326.09 376.861 325.839 377.081 325.635 377.31C324.332 378.771 323.974 380.944 322.39 382.094C321.979 381.454 321.336 380.966 320.609 380.741C320.325 380.653 320.011 380.606 319.735 380.717C319.102 380.972 319.045 381.825 319.033 382.507C318.987 385.085 318.08 387.64 316.49 389.67C316.128 390.132 315.73 390.572 315.456 391.091C315.182 391.61 315.045 392.235 315.244 392.787C315.443 393.339 316.053 393.76 316.619 393.609L328.656 380.063Z" fill="#6376BF"/>
<path d="M302.803 352.687L300.013 353.142L299.024 353.312L290.516 354.71C290.516 354.71 285.241 328.902 284.534 325C283.837 321.097 285.448 311.12 285.448 311.12L296.582 310.105L302.803 352.687Z" fill="#F05956"/>
<g opacity="0.5">
<path d="M300.013 353.142L299.025 353.313L293.255 310.409L294.251 310.319L300.013 353.142Z" fill="#F05956"/>
</g>
<path d="M264.306 303.894L241.772 297.089C241.204 296.156 240.323 295.435 239.238 295.082C239.091 295.034 238.935 294.993 238.783 295.022C238.631 295.051 238.485 295.168 238.472 295.322C238.46 295.462 238.554 295.585 238.637 295.699C238.932 296.103 239.145 296.566 239.26 297.053C238.104 297.115 237.054 296.452 236.017 295.939C235.751 295.808 235.361 295.719 235.216 295.977C235.09 296.201 235.284 296.468 235.476 296.639C235.946 297.059 236.486 297.4 237.067 297.645C236.356 297.381 235.645 297.116 234.934 296.851C234.717 296.77 234.416 296.716 234.302 296.918C234.211 297.078 234.319 297.275 234.431 297.419C235.028 298.187 235.876 298.758 236.812 299.021C236.034 298.814 235.255 298.607 234.477 298.4C234.382 298.375 234.276 298.35 234.187 298.393C234.066 298.451 234.029 298.616 234.073 298.744C234.117 298.871 234.22 298.968 234.321 299.057C235.003 299.657 235.782 300.146 236.618 300.5C236.25 300.474 235.882 300.448 235.514 300.422C235.295 300.407 235.01 300.435 234.954 300.647C234.901 300.846 235.106 301.013 235.289 301.106C236.215 301.576 237.282 301.712 238.319 301.659C239.064 301.621 239.799 301.49 240.529 301.334L262.277 310.779C264.158 311.333 266.136 310.24 266.696 308.339C267.258 306.438 266.187 304.448 264.306 303.894Z" fill="#FFB894"/>
<path d="M248.049 298.424L246.131 304.644C246.131 304.644 263.484 312.231 264.625 312.28C265.464 312.316 275.488 301.42 280.728 295.658C283.16 292.984 283.262 288.818 280.748 286.221C279.438 284.868 279.775 282.594 277.742 284.259C272.567 288.495 262.224 302.644 262.224 302.644L248.049 298.424Z" fill="#6376BF"/>
<path opacity="0.5" d="M275.104 301.788L273.363 291.678L272.428 304.658L275.104 301.788Z" fill="#6376BF"/>
<path d="M288.143 281.708L286.533 283.153C285.466 284.563 283.417 284.75 282.112 283.556L280.497 282.078L280.021 272.83L286.466 272.242L288.143 281.708Z" fill="#FFB894"/>
<path d="M280.27 277.684C280.27 277.684 283.877 277.314 285.146 275.633C285.146 275.633 283.431 279.667 280.377 279.772L280.27 277.684Z" fill="#F29272"/>
<path d="M297.51 299.468C297.201 305.109 296.582 310.106 296.582 310.106L276.944 311.896C276.944 311.896 273.496 293.132 273.363 291.678C273.181 289.676 276.122 285.261 279.193 282.933C279.474 282.717 279.759 282.53 280.034 282.354C280.195 282.249 280.348 282.165 280.501 282.081C280.501 282.081 283.632 284.808 288.139 281.385C288.139 281.385 288.308 281.48 288.585 281.656C288.808 281.786 289.116 281.969 289.457 282.189C290.901 283.051 293.147 284.443 294.331 285.309C296.148 286.629 297.82 293.837 297.51 299.468Z" fill="#6376BF"/>
<g opacity="0.5">
<path d="M292.529 293.271L291.535 293.378L293.38 310.411L294.374 310.303L292.529 293.271Z" fill="#6376BF"/>
</g>
<g opacity="0.5">
<path d="M289.457 282.188C287.792 283.976 286.094 284.955 284.362 285.113C284.143 285.133 283.913 285.144 283.691 285.134C281.576 285.066 279.993 283.784 279.193 282.933C279.474 282.717 279.759 282.53 280.034 282.354C280.763 283.081 282.07 284.086 283.731 284.136C285.332 284.181 286.963 283.349 288.586 281.655C288.808 281.785 289.116 281.968 289.457 282.188Z" fill="#6376BF"/>
</g>
<path d="M332.261 306.111L326.536 316.913L333.231 327.14L350.169 326.25L343.708 335.756L320.587 336.829L314.548 326.16L258.954 328.725L256.058 328.864L251.032 340.056L227.909 341.12L220.592 332.262L222.108 332.203L237.546 331.574L243.27 320.772L236.565 310.548L219.625 311.428L226.086 301.922L249.219 300.856L255.248 311.527L310.372 308.97L313.746 308.812L318.765 297.632L341.895 296.556L349.205 305.425L347.72 305.488L332.261 306.111Z" fill="#143C4A"/>
<path opacity="0.5" d="M258.954 328.725L256.058 328.863L251.032 340.055L227.909 341.119L220.591 332.262L222.108 332.202C224.325 334.155 230.344 338.983 234.887 338.467C240.557 337.808 254.813 332.906 256.273 323.151C257.254 316.633 258.396 322.785 258.954 328.725Z" fill="#143C4A"/>
<path opacity="0.5" d="M349.205 305.425L347.72 305.488C346.727 304.458 345.582 303.259 344.441 301.997C341.277 298.51 323.745 299.191 321.312 299.765C318.879 300.339 314.307 312.893 312.259 314.403C310.912 315.399 310.493 311.748 310.372 308.971L313.746 308.813L318.765 297.633L341.895 296.557L349.205 305.425Z" fill="#143C4A"/>
<path opacity="0.5" d="M255.251 311.525C255.505 314.188 257.945 316.091 260.59 315.689L302.288 309.345L255.251 311.525Z" fill="#143C4A"/>
<path d="M302.352 315.203C301.592 314.856 300.833 314.508 300.067 314.173C298.846 313.637 297.642 313.107 296.482 312.516L288.907 327.345L285.355 327.51C285.355 327.51 287.065 331.002 290.791 330.576C294.517 330.15 295.18 327.03 295.18 327.03L302.352 315.203Z" fill="#FFB894"/>
<path d="M305.841 300.996C303.183 296.952 297.687 288.926 293.528 285.052C291.194 287.284 288.901 289.551 286.921 292.103C286.994 292.194 287.053 292.294 287.132 292.381L299.064 305.657L292.497 319.148L298.95 321.827C303.585 314.526 305.682 309.731 306.631 306.874C307.287 304.897 306.985 302.737 305.841 300.996Z" fill="#6376BF"/>
<path opacity="0.5" d="M290.188 295.782L297.226 303.613L296.978 306.403L290.188 295.782Z" fill="#6376BF"/>
<path d="M288.934 267.833C288.664 267.667 288.406 267.634 288.164 267.664C287.98 266.819 287.718 266.015 287.457 265.285C287.127 264.371 286.377 263.714 285.481 263.542C283.28 263.117 279.158 262.232 276.537 264.565C275.955 265.085 275.635 265.869 275.649 266.687C275.674 268.13 275.624 269.33 275.876 271.757C275.97 272.663 276.091 273.535 276.238 274.315C276.489 275.612 276.821 276.637 277.266 277.066C279.041 278.77 285.124 277.341 287.438 273.518C287.78 272.953 288.015 272.375 288.171 271.794C289.584 270.905 289.9 268.429 288.934 267.833Z" fill="#FFB894"/>
<path d="M279.384 269.203C279.607 269.507 279.687 269.911 279.668 270.292C279.654 270.678 279.549 271.05 279.415 271.399C279.343 271.576 279.258 271.738 279.227 271.876C279.189 272.01 279.217 272.141 279.291 272.273C279.44 272.536 279.787 272.674 280.157 272.683C279.824 272.829 279.339 272.797 279.052 272.446C278.908 272.286 278.837 272.033 278.875 271.808C278.915 271.586 279.006 271.423 279.064 271.259C279.198 270.931 279.307 270.598 279.377 270.258C279.443 269.919 279.459 269.569 279.384 269.203Z" fill="#F29272"/>
<path d="M280.633 268.433C280.766 268.283 280.927 268.21 281.106 268.169C281.284 268.134 281.473 268.135 281.656 268.166C281.841 268.192 282.017 268.277 282.162 268.387C282.314 268.49 282.418 268.64 282.505 268.784C282.535 268.833 282.519 268.898 282.469 268.927C282.432 268.949 282.387 268.946 282.354 268.922L282.344 268.915C282.222 268.826 282.105 268.745 281.98 268.695C281.857 268.639 281.729 268.618 281.601 268.61C281.34 268.59 281.095 268.714 280.805 268.719L280.766 268.72C280.671 268.722 280.593 268.646 280.591 268.551C280.589 268.506 280.605 268.464 280.633 268.433Z" fill="#523329"/>
<path d="M278.536 268.925C278.25 268.972 277.986 268.895 277.733 268.962C277.609 268.993 277.486 269.036 277.376 269.114C277.262 269.186 277.161 269.286 277.057 269.397L277.049 269.406C277.009 269.448 276.943 269.45 276.901 269.41C276.87 269.38 276.861 269.336 276.875 269.297C276.934 269.139 277.009 268.973 277.14 268.845C277.262 268.711 277.42 268.596 277.597 268.536C277.772 268.472 277.957 268.437 278.139 268.439C278.322 268.447 278.493 268.49 278.652 268.613C278.727 268.671 278.74 268.779 278.682 268.854C278.654 268.889 278.616 268.911 278.575 268.918L278.536 268.925Z" fill="#523329"/>
<path d="M279.863 273.878C280.328 273.824 280.748 273.764 281.076 273.567C281.242 273.474 281.382 273.343 281.496 273.176C281.62 273.013 281.703 272.814 281.817 272.603C281.859 272.833 281.854 273.083 281.757 273.315C281.676 273.553 281.491 273.761 281.269 273.893C281.044 274.022 280.79 274.08 280.547 274.071C280.304 274.061 280.067 274.005 279.863 273.878Z" fill="#F29272"/>
<path d="M281.62 270.435C281.658 270.856 281.486 271.215 281.235 271.238C280.984 271.261 280.749 270.938 280.711 270.518C280.673 270.097 280.845 269.738 281.096 269.715C281.347 269.692 281.581 270.014 281.62 270.435Z" fill="#523329"/>
<path d="M278.391 270.729C278.429 271.15 278.257 271.509 278.006 271.532C277.755 271.555 277.52 271.232 277.482 270.812C277.444 270.391 277.616 270.032 277.867 270.009C278.118 269.986 278.352 270.309 278.391 270.729Z" fill="#523329"/>
<path d="M288.84 269.239C288.735 269.077 288.554 269.01 288.386 269.007C288.217 269.002 288.062 269.075 287.924 269.172C287.654 269.38 287.425 269.677 287.244 269.978C287.199 270.053 287.102 270.077 287.027 270.032C286.958 269.99 286.933 269.904 286.964 269.832C287.082 269.565 287.337 269.426 287.57 269.362C287.689 269.329 287.814 269.314 287.948 269.328C288.08 269.341 288.231 269.401 288.324 269.519C288.507 269.755 288.472 270.062 288.322 270.263C288.169 270.461 287.944 270.556 287.727 270.591C287.92 270.486 288.098 270.351 288.181 270.175C288.265 270.011 288.236 269.793 288.128 269.693C288.031 269.592 287.838 269.602 287.655 269.659C287.473 269.712 287.319 269.824 287.252 269.962L286.972 269.816C287.184 269.482 287.438 269.178 287.797 268.97C287.974 268.87 288.197 268.814 288.404 268.861C288.605 268.905 288.796 269.047 288.84 269.239Z" fill="#F29272"/>
<path d="M288.632 263.788C287.148 261.352 282.024 261.818 282.024 261.818C282.153 261.493 281.974 261.103 281.68 260.913C281.386 260.723 281.011 260.703 280.666 260.765C280.306 260.83 279.944 260.993 279.736 261.294C279.725 260.904 279.682 260.509 279.536 260.147C279.389 259.785 279.129 259.458 278.774 259.295C278.41 259.128 277.978 259.151 277.607 259.301C277.236 259.451 276.922 259.718 276.662 260.022C276.127 260.649 275.799 261.478 275.882 262.299C275.649 262.051 275.415 261.804 275.182 261.556C275.104 261.474 275.018 261.387 274.906 261.369C274.785 261.35 274.668 261.418 274.574 261.496C274.195 261.807 274.001 262.305 273.982 262.795C273.964 263.285 274.105 263.769 274.303 264.218C274.459 264.572 274.663 264.906 274.898 265.218C274.188 267.386 275.766 270.552 275.766 270.552C275.528 268.502 276.119 267.205 276.574 266.534C277.026 266.718 277.638 266.916 278.414 267.04C280.164 267.32 281.768 265.259 282.668 265.222C283.568 265.185 283.723 266.053 283.723 266.053C283.723 266.053 283.919 268.89 284.407 269.427C284.895 269.964 285.936 270.711 286.287 270.775C286.638 270.84 286.211 267.315 288.162 267.663C290.516 268.082 288.083 271.65 288.083 271.65L287.842 272.732C292.32 269.824 288.632 263.788 288.632 263.788Z" fill="#523329"/>
<path d="M97.242 368.849C95.756 367.997 94.217 367.136 92.682 366.235C86.423 374.182 81.252 381.156 81.252 381.156L85.722 385.082L100.036 370.501C99.1049 369.948 98.183 369.388 97.242 368.849Z" fill="#E28758"/>
<path d="M80.183 382.137C79.701 381.666 79.833 380.489 80.282 379.986C80.626 379.601 81.019 379.26 81.449 378.976C81.657 378.838 81.888 378.709 82.138 378.711C82.445 378.712 82.715 378.909 82.939 379.118C84.37 380.453 84.927 382.584 86.61 383.584C86.961 382.909 87.556 382.364 88.259 382.073C88.534 381.96 88.842 381.884 89.127 381.969C89.78 382.165 89.916 383.009 89.99 383.687C90.272 386.25 91.41 388.711 93.18 390.587C93.582 391.014 94.02 391.415 94.34 391.907C94.66 392.399 94.854 393.008 94.707 393.576C94.559 394.144 93.991 394.619 93.413 394.52L80.183 382.137Z" fill="#143C4A"/>
<path d="M116.47 325C116.47 325.23 116.47 325.47 116.46 325.72C116.46 326.05 116.46 326.4 116.45 326.76C116.37 336.05 116.14 354.64 115.72 355.67C115.17 357.04 93.88 377.21 93.88 377.21L93.67 376.99L88.46 371.64L87.96 371.13L105.17 350.04L101.44 314.65L111.53 318.1L112.57 318.45L114.2 319.01C115.68 320.65 116.49 322.79 116.47 325Z" fill="#FCC574"/>
<g opacity="0.5">
<path d="M116.46 325.72C116.46 326.05 116.46 326.4 116.45 326.76C115.63 326.61 114.9 326.23 114.26 325.63C112.15 323.63 111.65 319.67 111.53 318.1L112.57 318.45C112.73 320.09 113.26 323.32 114.95 324.9C115.4 325.33 115.9 325.61 116.46 325.72Z" fill="#FCC574"/>
</g>
<path opacity="0.5" d="M103.778 351.746L103.3 368.203L108.134 363.512L104.451 350.921L103.778 351.746Z" fill="#FCC574"/>
<path opacity="0.5" d="M93.67 376.99L93.24 364.659L91.287 367.053L93.67 376.99Z" fill="#FCC574"/>
<path d="M97.242 368.849C95.936 368.1 94.589 367.344 93.24 366.56C93.864 379.175 95.103 391.916 95.103 391.916H102.257L102.62 372.028C100.845 370.947 99.054 369.887 97.242 368.849Z" fill="#E28758"/>
<path d="M95.2859 395.002C94.6129 394.983 93.9099 394.029 93.8989 393.356C93.8899 392.84 93.9469 392.323 94.0699 391.822C94.1289 391.579 94.2109 391.328 94.3959 391.159C94.6219 390.952 94.9539 390.913 95.2599 390.914C97.2169 390.923 99.0729 392.109 100.987 391.701C100.786 390.967 100.853 390.163 101.172 389.472C101.297 389.202 101.472 388.937 101.739 388.807C102.352 388.507 103.024 389.035 103.539 389.482C105.486 391.172 107.993 392.207 110.565 392.383C111.15 392.423 111.744 392.421 112.312 392.564C112.881 392.708 113.438 393.023 113.714 393.541C113.991 394.058 113.896 394.793 113.405 395.113L95.2859 395.002Z" fill="#143C4A"/>
<path d="M110.25 317.66L104.45 328.58L102.88 382.69H93.8999C93.8999 382.69 91.9999 339.19 91.7499 327.94C91.4999 316.69 95.0099 312.46 95.0099 312.46L96.5099 312.97L97.4599 313.29L99.8399 314.11L100.8 314.44L110.25 317.66Z" fill="#FCC574"/>
<path opacity="0.5" d="M100.8 314.44C100.44 316.3 99.6 319.22 97.82 320.49C97.22 320.91 96.57 321.12 95.87 321.12C95.75 321.12 95.6299 321.09 95.5199 321.08C95.2299 322.87 95.0299 324.83 94.9999 326.88C94.9099 332.98 95.9099 360.42 96.4499 375.16C96.5999 379.29 96.69 381.5 96.69 382.69H95.73C95.68 381.34 95.5799 378.6 95.4599 375.19C94.9099 360.44 93.9099 332.99 93.9999 326.87C94.0899 320.76 95.6699 315.41 96.5099 312.97L97.46 313.29C96.97 314.71 96.23 317.13 95.69 320.11C96.25 320.15 96.7599 320.01 97.2299 319.67C98.7699 318.57 99.5199 315.81 99.8399 314.11L100.8 314.44Z" fill="#FCC574"/>
<path d="M144.709 320.099L145.532 315.807L121.942 311.468C120.016 311.1 118.153 312.38 117.781 314.327C117.409 316.274 119.619 317.445 121.545 317.813L144.709 320.099Z" fill="#E28758"/>
<path d="M144.876 315.856C144.876 315.856 151.959 314.88 155.498 319.042C155.783 319.378 155.633 319.899 155.205 320.006C153.446 320.444 149.13 321.243 144.288 320.099L144.876 315.856Z" fill="#E28758"/>
<path d="M110.733 294.313L116.875 293.446C119.389 293.091 121.742 294.764 122.232 297.255L125.017 311.406L136.688 314.181L135.045 320.1C135.045 320.1 119.67 322.001 117.295 314.939C114.92 307.877 110.733 294.313 110.733 294.313Z" fill="#0F3340"/>
<path d="M110.083 286.482L114.771 290.583L117.606 288.695L120.246 279.82L114.121 277.731L110.083 286.482Z" fill="#E28758"/>
<path d="M118.861 284.478C118.861 284.478 115.443 283.268 114.605 281.336C114.605 281.336 115.321 285.661 118.265 286.482L118.861 284.478Z" fill="#C26144"/>
<path d="M122.5 300.09C121.93 301.9 114.2 319.01 114.2 319.01L95.01 312.46L99.75 294.37C100.54 291.38 102.68 288.93 105.53 287.75C106.5 287.35 107.42 287.02 108.18 286.77C108.61 286.62 108.99 286.5 109.3 286.4C109.84 286.24 110.17 286.16 110.17 286.16L114.89 289.92L117.61 288.7C117.77 288.86 117.94 289.03 118.09 289.2C118.33 289.45 118.55 289.71 118.77 289.98C121.69 293.61 123 298.49 122.5 300.09Z" fill="#143C4A"/>
<g opacity="0.5">
<path d="M118.77 289.98L114.33 292.09L108.18 286.77C108.61 286.62 108.99 286.5 109.3 286.4L114.5 290.91L118.09 289.2C118.33 289.45 118.55 289.71 118.77 289.98Z" fill="#143C4A"/>
</g>
<path d="M134.923 320.531L135.826 316.255L112.321 311.475C110.402 311.071 108.516 312.316 108.107 314.255C107.699 316.194 109.886 317.407 111.805 317.811L134.923 320.531Z" fill="#E28758"/>
<path d="M135.17 316.292C135.17 316.292 142.27 315.45 145.731 319.677C146.01 320.018 145.85 320.536 145.42 320.635C143.653 321.04 139.323 321.758 134.503 320.524L135.17 316.292Z" fill="#E28758"/>
<path d="M101.436 294.112L112.087 292.812L115.397 311.47L127.014 314.463L125.26 320.35C125.26 320.35 109.852 321.963 107.61 314.857C105.368 307.751 101.436 294.112 101.436 294.112Z" fill="#143C4A"/>
<path opacity="0.5" d="M102.416 297.492L107.191 313.516C107.191 313.516 97.902 307.647 102.416 297.492Z" fill="#143C4A"/>
<path d="M125.579 272.608C123.581 269.723 119.367 269.613 117.127 269.508C116.216 269.465 115.332 269.926 114.796 270.737C114.37 271.384 113.927 272.104 113.548 272.883C113.32 272.796 113.061 272.767 112.76 272.866C111.68 273.218 111.405 275.699 112.567 276.895C112.582 277.497 112.674 278.114 112.874 278.744C114.223 283.004 119.798 285.826 121.925 284.588C122.459 284.275 123.023 283.358 123.573 282.156C123.899 281.433 124.223 280.613 124.527 279.755C125.343 277.455 125.577 276.277 125.942 274.881C126.148 274.087 126.023 273.25 125.579 272.608Z" fill="#E28758"/>
<path d="M121.719 276.445C121.431 276.688 121.258 277.061 121.186 277.436C121.109 277.814 121.123 278.2 121.172 278.572C121.2 278.761 121.245 278.939 121.243 279.08C121.248 279.219 121.19 279.34 121.087 279.451C120.88 279.671 120.511 279.724 120.148 279.646C120.438 279.866 120.916 279.949 121.278 279.676C121.456 279.554 121.585 279.326 121.6 279.098C121.613 278.872 121.563 278.693 121.546 278.52C121.493 278.17 121.465 277.82 121.478 277.474C121.494 277.126 121.56 276.783 121.719 276.445Z" fill="#C26144"/>
<path d="M120.687 275.402C120.593 275.225 120.454 275.116 120.29 275.034C120.125 274.958 119.942 274.914 119.756 274.902C119.57 274.884 119.379 274.925 119.213 274.997C119.041 275.061 118.905 275.182 118.787 275.302C118.747 275.343 118.747 275.409 118.788 275.45C118.819 275.48 118.864 275.488 118.901 275.472L118.913 275.467C119.053 275.409 119.186 275.358 119.319 275.339C119.451 275.313 119.581 275.324 119.707 275.346C119.965 275.388 120.174 275.566 120.455 275.639L120.493 275.649C120.585 275.673 120.679 275.618 120.703 275.526C120.713 275.483 120.706 275.439 120.687 275.402Z" fill="#523329"/>
<path d="M122.609 276.374C122.876 276.488 123.15 276.474 123.38 276.599C123.493 276.658 123.602 276.729 123.691 276.831C123.785 276.928 123.859 277.049 123.934 277.181L123.94 277.192C123.969 277.242 124.033 277.259 124.083 277.231C124.121 277.209 124.14 277.168 124.135 277.128C124.115 276.961 124.081 276.782 123.984 276.626C123.897 276.467 123.77 276.318 123.612 276.218C123.457 276.114 123.286 276.037 123.109 275.997C122.929 275.962 122.752 275.963 122.57 276.046C122.484 276.085 122.445 276.187 122.484 276.273C122.502 276.314 122.535 276.344 122.573 276.36L122.609 276.374Z" fill="#523329"/>
<path d="M120.152 280.875C119.713 280.713 119.319 280.556 119.046 280.287C118.907 280.158 118.801 279.998 118.73 279.808C118.648 279.62 118.614 279.408 118.553 279.175C118.458 279.389 118.404 279.633 118.444 279.881C118.467 280.131 118.597 280.377 118.783 280.558C118.971 280.736 119.205 280.852 119.443 280.901C119.681 280.949 119.925 280.95 120.152 280.875Z" fill="#C26144"/>
<path d="M119.256 277.115C119.12 277.515 119.203 277.905 119.441 277.986C119.679 278.067 119.984 277.809 120.12 277.409C120.256 277.009 120.173 276.619 119.935 276.538C119.697 276.457 119.393 276.715 119.256 277.115Z" fill="#523329"/>
<path d="M122.325 278.162C122.189 278.562 122.271 278.952 122.51 279.033C122.749 279.114 123.053 278.856 123.189 278.456C123.325 278.056 123.242 277.666 123.004 277.585C122.766 277.504 122.462 277.762 122.325 278.162Z" fill="#523329"/>
<path d="M112.521 274.252C112.661 274.119 112.853 274.097 113.016 274.134C113.182 274.169 113.315 274.276 113.426 274.403C113.639 274.668 113.792 275.011 113.897 275.347C113.923 275.43 114.012 275.476 114.095 275.45C114.172 275.426 114.217 275.348 114.203 275.271C114.151 274.984 113.936 274.789 113.725 274.671C113.617 274.611 113.5 274.567 113.365 274.548C113.234 274.529 113.073 274.552 112.955 274.646C112.722 274.832 112.684 275.139 112.782 275.369C112.884 275.598 113.08 275.743 113.283 275.828C113.12 275.681 112.979 275.507 112.94 275.317C112.897 275.138 112.976 274.933 113.105 274.861C113.223 274.785 113.408 274.841 113.573 274.94C113.737 275.035 113.861 275.179 113.893 275.329L114.199 275.253C114.072 274.879 113.896 274.523 113.597 274.237C113.448 274.098 113.245 273.991 113.033 273.989C112.827 273.983 112.609 274.076 112.521 274.252Z" fill="#C26144"/>
<path d="M125.702 275.828C125.81 273.219 123.782 274.687 122.758 274.761C121.734 274.834 122.063 273.594 121.095 272.887C120.126 272.18 119.301 273.156 119.301 273.156C119.301 273.156 117.837 274.688 116.341 275.409C116.022 275.563 115.642 275.421 115.497 275.098C115.242 274.532 114.781 273.671 114.164 273.177C113.49 272.637 112.538 272.875 112.138 273.641C111.787 274.313 111.592 275.41 112.566 276.891C112.566 276.891 112.768 278.585 113.029 279.175C112.118 278.736 111.426 277.833 111.135 276.864C110.752 275.59 110.932 274.188 111.292 272.938C111.575 271.954 112.022 271.02 112.603 270.177C112.916 269.723 113.285 269.3 113.765 269.035C114.303 268.737 115.005 268.674 115.52 269.011C117.765 268.259 120.083 267.99 122.441 268.2C123.357 268.281 124.28 268.44 125.114 268.829C125.948 269.218 126.691 269.858 127.059 270.701C127.348 271.365 127.39 272.118 127.279 272.833C127.168 273.549 126.91 274.233 126.618 274.896C126.26 275.709 125.845 276.503 125.29 277.196L125.702 275.828Z" fill="#523329"/>
<path d="M185 395.141V323.201H181.592V395.141H185Z" fill="#4759A1"/>
<path opacity="0.5" d="M185 333.417V328.578H181.592V333.417H185Z" fill="#4759A1"/>
<path d="M151.081 395.141V323.201H147.673V395.141H151.081Z" fill="#4759A1"/>
<path opacity="0.5" d="M151.081 333.417V328.578H147.673V333.417H151.081Z" fill="#4759A1"/>
<path d="M132.904 395.141V323.201H129.496V395.141H132.904Z" fill="#6376BF"/>
<path opacity="0.5" d="M132.904 333.417V328.578H129.496V333.417H132.904Z" fill="#6376BF"/>
<path d="M166.823 395.141V323.201H163.415V395.141H166.823Z" fill="#6376BF"/>
<path opacity="0.5" d="M166.823 333.417V328.578H163.415V333.417H166.823Z" fill="#6376BF"/>
<path d="M185 323.201H129.496V328.577H185V323.201Z" fill="#6376BF"/>
<path opacity="0.5" d="M185 323.201H129.496V324.75H185V323.201Z" fill="#6376BF"/>
<path d="M162.145 320.951H136.609V323.201H162.145V320.951Z" fill="#1B5063"/>
<path d="M173 320.951H150.647V323.201H173V320.951Z" fill="#143C4A"/>
<path d="M172.969 320.951H150.616L152.503 306.788C152.568 306.301 152.983 305.937 153.474 305.937H173.849C174.442 305.937 174.899 306.459 174.821 307.046L172.969 320.951Z" fill="#143C4A"/>
<path d="M427 394.75H0.720947V397.75H427V394.75Z" fill="#B4CBDD"/>
</svg>
