<svg width="800" height="800" viewBox="0 0 800 800" fill="none" xmlns="http://www.w3.org/2000/svg">
<g clip-path="url(#clip0_26_3)">
<path d="M741.736 0.0346523H58.6403C50.8216 -0.235121 43.0286 1.0725 35.7262 3.87951C28.4237 6.68653 21.7613 10.9355 16.1364 16.3729C10.5115 21.8103 6.03925 28.3248 2.98638 35.528C-0.0664987 42.7311 -1.63745 50.4753 -1.6328 58.2987V743.403C-1.63745 751.227 -0.0664987 758.971 2.98638 766.174C6.03925 773.377 10.5115 779.892 16.1364 785.329C21.7613 790.767 28.4237 795.016 35.7262 797.823C43.0286 800.63 50.8216 801.937 58.6403 801.667H741.736C757.188 801.667 772.008 795.529 782.935 784.602C793.861 773.676 800 758.856 800 743.403V58.2987C800 42.8461 793.861 28.0264 782.935 17.0998C772.008 6.17317 757.188 0.0346523 741.736 0.0346523ZM237.451 683.13H116.904V301.4H237.451V683.13ZM177.178 249.164C158.878 248.641 141.504 241.002 128.748 227.871C115.993 214.74 108.86 197.152 108.868 178.845C108.868 160.728 116.065 143.353 128.875 130.543C141.686 117.732 159.061 110.535 177.178 110.535C195.294 110.535 212.669 117.732 225.48 130.543C238.29 143.353 245.487 160.728 245.487 178.845C245.495 197.152 238.362 214.74 225.607 227.871C212.851 241.002 195.477 248.641 177.178 249.164ZM681.463 683.13H562.926V496.284C562.926 452.083 562.926 395.828 500.643 395.828C438.361 395.828 430.325 444.047 430.325 494.274V683.13H311.788V301.4H424.297V353.637H426.306C437.621 334.004 454.077 317.829 473.903 306.854C493.728 295.88 516.171 290.521 538.816 291.355C659.363 291.355 681.463 369.71 681.463 474.183V683.13Z" fill="white"/>
</g>
<defs>
<clipPath id="clip0_26_3">
<rect width="800" height="800" fill="white"/>
</clipPath>
</defs>
</svg>
